<?xml version="1.0" encoding="UTF-8"?>
<svg xmlns="http://www.w3.org/2000/svg" xmlns:xlink="http://www.w3.org/1999/xlink" viewBox="0 0 589.4 841.89">
  <defs>
    <style>
      .cls-1 {
        font-size: 7px;
      }

      .cls-1, .cls-2, .cls-3, .cls-4, .cls-5, .cls-6, .cls-7, .cls-8, .cls-9, .cls-10, .cls-11, .cls-12, .cls-13, .cls-14, .cls-15 {
        fill: #161615;
      }

      .cls-1, .cls-16, .cls-17, .cls-9, .cls-13 {
        font-style: italic;
      }

      .cls-1, .cls-9 {
        font-family: Calibri-LightItalic, Calibri;
        font-weight: 300;
      }

      .cls-18 {
        letter-spacing: -.08em;
      }

      .cls-19 {
        fill: #231f20;
      }

      .cls-19, .cls-20, .cls-21, .cls-8 {
        font-family: Calibri, Calibri;
      }

      .cls-19, .cls-3, .cls-5 {
        font-size: 12px;
      }

      .cls-22 {
        letter-spacing: .16em;
      }

      .cls-2 {
        font-size: 17.22px;
      }

      .cls-2, .cls-4, .cls-23, .cls-5, .cls-6, .cls-24, .cls-25, .cls-7, .cls-26, .cls-12, .cls-14 {
        font-family: BebasNeue-Regular, 'Bebas Neue';
      }

      .cls-27 {
        letter-spacing: 0em;
      }

      .cls-28 {
        letter-spacing: -.02em;
      }

      .cls-3, .cls-29, .cls-10, .cls-30, .cls-31 {
        font-family: TimesNewRomanPSMT, 'Times New Roman';
      }

      .cls-32 {
        font-size: 25.3px;
      }

      .cls-32, .cls-33, .cls-34 {
        fill: #545659;
      }

      .cls-32, .cls-34 {
        font-family: Geometos, Geometos;
      }

      .cls-4 {
        font-size: 13px;
      }

      .cls-35, .cls-23, .cls-36, .cls-37, .cls-38, .cls-39, .cls-40 {
        fill: #00a79d;
      }

      .cls-35, .cls-41, .cls-33, .cls-42, .cls-43, .cls-44, .cls-15, .cls-45 {
        stroke-width: 0px;
      }

      .cls-46 {
        letter-spacing: .21em;
      }

      .cls-47 {
        letter-spacing: .13em;
      }

      .cls-48 {
        stroke-width: .5px;
      }

      .cls-48, .cls-41, .cls-49 {
        fill: none;
      }

      .cls-48, .cls-49 {
        stroke: #161615;
        stroke-miterlimit: 10;
      }

      .cls-50 {
        letter-spacing: .16em;
      }

      .cls-51 {
        letter-spacing: -.02em;
      }

      .cls-23 {
        font-size: 9px;
      }

      .cls-52 {
        letter-spacing: -.01em;
      }

      .cls-36, .cls-37, .cls-38, .cls-39, .cls-40 {
        font-family: aAtomicMd, 'a Atomic Md';
      }

      .cls-36, .cls-53 {
        letter-spacing: .16em;
      }

      .cls-36, .cls-38, .cls-40 {
        font-size: 15px;
      }

      .cls-54 {
        letter-spacing: .04em;
      }

      .cls-55 {
        letter-spacing: .1em;
      }

      .cls-56 {
        letter-spacing: 1.11em;
      }

      .cls-57 {
        clip-path: url(#clippath-6);
      }

      .cls-6, .cls-25 {
        font-size: 11px;
      }

      .cls-21, .cls-30 {
        letter-spacing: 0em;
      }

      .cls-37 {
        font-size: 25px;
      }

      .cls-24 {
        font-size: 26.03px;
      }

      .cls-24, .cls-26, .cls-44 {
        fill: #828488;
      }

      .cls-58 {
        letter-spacing: -.01em;
      }

      .cls-59 {
        letter-spacing: -.05em;
      }

      .cls-60 {
        letter-spacing: 0em;
      }

      .cls-61 {
        letter-spacing: 0em;
      }

      .cls-25, .cls-42 {
        fill: #fff;
      }

      .cls-62 {
        clip-path: url(#clippath-7);
      }

      .cls-63, .cls-45 {
        fill: #00a096;
      }

      .cls-64 {
        clip-path: url(#clippath-1);
      }

      .cls-65 {
        clip-path: url(#clippath-4);
      }

      .cls-66 {
        letter-spacing: .04em;
      }

      .cls-67 {
        letter-spacing: -.01em;
      }

      .cls-68 {
        letter-spacing: -.02em;
      }

      .cls-69 {
        letter-spacing: .13em;
      }

      .cls-7 {
        font-size: 23.84px;
      }

      .cls-70 {
        letter-spacing: .13em;
      }

      .cls-71, .cls-40 {
        letter-spacing: .17em;
      }

      .cls-8 {
        font-size: 11.57px;
      }

      .cls-72 {
        letter-spacing: .16em;
      }

      .cls-73 {
        letter-spacing: 0em;
      }

      .cls-16 {
        font-family: TimesNewRomanPS-ItalicMT, 'Times New Roman';
      }

      .cls-74 {
        letter-spacing: -.02em;
      }

      .cls-75 {
        letter-spacing: .17em;
      }

      .cls-76 {
        letter-spacing: .72em;
      }

      .cls-17, .cls-13 {
        font-family: Calibri-Italic, Calibri;
      }

      .cls-77 {
        letter-spacing: -.02em;
      }

      .cls-78 {
        clip-path: url(#clippath);
      }

      .cls-9, .cls-10, .cls-11, .cls-12, .cls-13 {
        font-size: 10px;
      }

      .cls-79 {
        letter-spacing: .75em;
      }

      .cls-80 {
        letter-spacing: .21em;
      }

      .cls-26 {
        font-size: 32.05px;
      }

      .cls-81 {
        letter-spacing: .16em;
      }

      .cls-82 {
        letter-spacing: 0em;
      }

      .cls-83 {
        letter-spacing: -.01em;
      }

      .cls-84 {
        clip-path: url(#clippath-3);
      }

      .cls-43 {
        fill: #061217;
      }

      .cls-85 {
        letter-spacing: 0em;
      }

      .cls-86 {
        clip-path: url(#clippath-8);
      }

      .cls-31 {
        letter-spacing: 0em;
      }

      .cls-87 {
        letter-spacing: 0em;
      }

      .cls-39 {
        font-size: 14px;
        letter-spacing: .16em;
      }

      .cls-88 {
        clip-path: url(#clippath-5);
      }

      .cls-89 {
        letter-spacing: 0em;
      }

      .cls-90 {
        letter-spacing: -.02em;
      }

      .cls-91 {
        letter-spacing: .1em;
      }

      .cls-92 {
        letter-spacing: .75em;
      }

      .cls-93 {
        letter-spacing: -.01em;
      }

      .cls-94 {
        letter-spacing: -.01em;
      }

      .cls-95 {
        letter-spacing: 0em;
      }

      .cls-96 {
        letter-spacing: 1.11em;
      }

      .cls-14 {
        font-size: 9.02px;
      }

      .cls-97 {
        letter-spacing: .13em;
      }

      .cls-98 {
        opacity: .09;
      }

      .cls-99 {
        letter-spacing: -.02em;
      }

      .cls-34 {
        font-size: 27.42px;
      }

      .cls-100 {
        letter-spacing: -.01em;
      }
    </style>
    <clipPath id="clippath">
      <rect class="cls-45" width="180.52" height="841.89"/>
    </clipPath>
    <clipPath id="clippath-1">
      <path class="cls-41" d="M42.92,74.19c0,26.15,21.19,47.34,47.34,47.34s47.34-21.19,47.34-47.34-21.2-47.34-47.34-47.34-47.34,21.2-47.34,47.34"/>
    </clipPath>
    <clipPath id="clippath-3">
      <rect class="cls-41" x="18.3" y="212.26" width="15.66" height="15.43"/>
    </clipPath>
    <clipPath id="clippath-4">
      <rect class="cls-41" x="18.36" y="265.36" width="15.54" height="17"/>
    </clipPath>
    <clipPath id="clippath-5">
      <rect class="cls-41" x="18.3" y="188" width="15.66" height="15.59"/>
    </clipPath>
    <clipPath id="clippath-6">
      <path class="cls-41" d="M95.02,625.25c-1.74,0-3.15,2.03-3.15,4.53s1.41,4.53,3.15,4.53h54.13c1.74,0,3.15-2.03,3.15-4.53s-1.41-4.53-3.15-4.53h-54.13Z"/>
    </clipPath>
    <clipPath id="clippath-7">
      <path class="cls-41" d="M95.02,609.03c-1.74,0-3.15,2.03-3.15,4.53s1.41,4.54,3.15,4.54h54.13c1.74,0,3.15-2.03,3.15-4.54s-1.41-4.53-3.15-4.53h-54.13Z"/>
    </clipPath>
    <clipPath id="clippath-8">
      <path class="cls-41" d="M95.02,592.81c-1.74,0-3.15,2.03-3.15,4.53s1.41,4.54,3.15,4.54h54.13c1.74,0,3.15-2.03,3.15-4.54s-1.41-4.53-3.15-4.53h-54.13Z"/>
    </clipPath>
  </defs>
  <g id="Calque_1" data-name="Calque 1">
    <g class="cls-98">
      <g>
        <rect class="cls-63" width="180.52" height="841.89"/>
        <g class="cls-78">
          <rect class="cls-45" width="180.52" height="841.89"/>
        </g>
      </g>
    </g>
    <g class="cls-64">
      <image width="1001" height="1001" transform="translate(151.91 22.13) rotate(-180) scale(.12 -.12)" xlink:href="90396706_10221414540693704_2716701436174925824_n.jpg"/>
    </g>
    <path class="cls-43" d="M49.72,110.85l-.71-1.27c1.45,1.02,2.12,2.05,1.56.78-.41.24-1.36-.77-2.21-1.85-.43-.54-.86-1.08-1.23-1.46-.36-.39-.68-.62-.91-.51l-.37-.89c.15.23.22.23.36.45-.65-1.76-1.37-.71-2.53-2.8-.36-.75-.5-1.33-.13-.9l-1.13-1.47c-.24-.48-.02-.45.22.03-.47-.8-.9-1.64-1.35-2.46h.04c-.33-.28-.92-1.01-1.2-1.37-.16-.72.25.28.29.06-.28-.44-.59-.88-.86-1.33.01-.35.19-.25.42.07.24.31.53.82.73,1.32.18-.88,0-1.14-.33-1.57-.3-.45-.75-1.07-1-2.64.2.44.43.88.64,1.31.2-1.08-.35-2.07-.49-3.73-.07.41.13,3.41-.65,1.91-.07-.48-.24-1.08-.72-1.88.36-.12.04-.94-.28-2l.51-.06c-.46-1.1-.65-.96-1.04-1.59-.25-1.31.07-1.66.36-2.03-.28-2.1-.37,1.57-.9-.9-.03-.45-.08-.85-.14-1.25-.05-.4-.11-.78-.2-1.17-.16-.78-.42-1.6-.63-2.66.08-1.26.33.19.44-.27l-.49-1.07c-.01-.27.12-.19.19-.15-.21-.92-.52-.05-.71-1.52-.28-.19-.12-.96.09-1.9.23-.94.41-2.03.16-2.96.18-.44.3.23.51.11-.23-2.51-.17-2.14-.47-4.26.18-.57.36-1.13.59-1.69-.61,1.21-.77-.48-.88-2.01-.26.42-.49.79-.62,1.04.05-.79.09-1.59.2-2.38.15-.26.26.01.39.43,0-.17-.02-.32-.02-.45.37-.78.56-.28.71.36-.17.25-.33.51-.5.76.2.63.45,1.22.76,1.16-.03-.16-.03-.45,0-.77.06.16.11.27.18.21.07-.07-.01-.33-.05-.72l.67-.39-.19-.17c.34-.95.66-1.9,1.07-2.82,0-.55,0-1.1-.02-1.66.02-.55.03-1.12.07-1.73.04-.61.11-1.25.26-1.94.16-.69.32-1.46.63-2.28.02.95.54.43.96.66-.43.32-.6.98-.79,1.73-.2.75-.33,1.63-.65,2.45.34-.86.5-.59.5-.34.16-1.05.43-2.07.66-3.11.34.22.51-.51,1.01-1.19-.97.25.47-2.37.89-3.61.26.05.36.45-.4,1.81,1.3-1.26.18-2.43,1.48-3.68-.19.34-.32.5-.28.69.12-.45.5-1.13.83-1.62.34-.49.66-.79.61-.51l-.2.33c.36-.52.8-1.2,1.25-1.92.46-.71.98-1.45,1.42-2.16.93-1.38,1.66-2.6,1.55-2.94.08.03.35.73.36.93.43-1.6.91-3.22,1.53-4.8.1.65,2.03.38.8,2.12.48-.38,1.01-.9,1.8-1.91-.35.23-1.26.2-.89-.23,1.53-.67.98-.56,2.71-1.5-.54.33-.55-.71.22-1.34-.04.19.56.53.35.82.44-.73.89-1.47,1.39-2.16-.4.49.31.56.86.39-.14.02.27-.3.77-.7.51-.38,1.14-.79,1.38-1.02l-.93.47c2.28-1.53,1.64-2.43,4.04-3.86-.22.29-.25,1.18.99.55.35-.64,1.64-2.92,3.85-4.16l.52-.02c.55-.32,1.11-.66,1.68-.94-.48.44-1.36,1.24-2.28,2.09-.93.85-1.85,1.8-2.53,2.4.98-.35.36.07,1.71-.67.56-.09-.61.64-1,.86,1.07-.52,2.12-1.07,3.22-1.52-.15-.14.42-.53,1.01-.9.6-.35,1.21-.68,1.09-.8-1.17.59-2.28,1.3-3.39,1.97-.32-.27,1.55-2.03,4.01-2.88.66-.11-.22.8-.12.9.25-.27,2.18-1.09,2.43-1.08l-.96.55c.69-.17,1.19-.48,1.75-.77.55-.29,1.17-.52,2.03-.61.57-.16,1.8-.04,1.85-.26-1.02-.14-1.52-1.28-.95-1.71.11-.01.9-.09,1.76-.17.85-.09,1.78-.08,2.13-.07,1.02.11-1.33.95-.46,1.04.02-.09.53-.3.74-.38.63-.04-.21.32,1.11.02.18-.35,2.73-.35.59-.36,1.31-.25,1.4-.16,2.95-.31-.52-.14,1.34-.8,2.69-.92-.08.07.23.16.38.2.69,0,1.29,0,1.86-.01.56.03,1.08.06,1.6.08.51.03,1.02.06,1.56.09.54.04,1.11.09,1.74.15.23.07,1.45.24.92.31.37,0,.71-.04,1.49.05,1.48.39-1.74-.17-.62.21.11-.12,2.04.01,3.15.16-.15-.12-.79-.27-1.53-.33-.74-.07-1.59-.1-2.15-.12.01-.15.51-.25,1.35-.27.42,0,.92-.02,1.48.03.56.05,1.19.13,1.85.22,2.11.36.87.37,1.24.4.97.24,1.67.39,2.23.48.55.12.95.19,1.33.25.76.13,1.45.25,3,.9,1.2.57-.04.29.21.48-.83-.25-1.45-.49-2.01-.7-.56-.19-1.06-.38-1.63-.53l1.37.47c-.55-.1-1.67-.38-2.26-.6.26.11.79.28,1.49.49.35.1.74.22,1.16.34.42.14.86.29,1.32.45.46.16.93.31,1.4.48.47.18.93.37,1.39.55.92.35,1.75.75,2.44,1.09.52.19,1.4.54,1.01.31l-.89-.39c-.78-.46,1.73.64.62.09.62.23,1.24.54,1.94.86.35.17.7.35,1.07.53.36.21.74.44,1.13.68l.24.28s-1.01-.67-1.48-.9c.69.36,2.39,1.53,3.15,1.89-.35-.25-.69-.52-1.06-.76,1.15.65,2.59,1.43,3.89,2.45-.55-.52-.31-.22-1.19-1,.76.68-3.51-2.32-2.24-1.29-.96-.73-1.73-1.15-3.05-2.01.02.06.45.33-.76-.34-.06-.02-.2-.07-.28-.11-.04-.02-.05-.03-.08-.05.02.01.04.03.07.04-.06-.02-.06-.02.02.01.28.17.51.32.59.39-.33-.11-.97-.44-1.63-.74-.67-.29-1.34-.59-1.68-.72-.73-.37.33.09-.05-.14-.34-.13-.69-.26-1.05-.37-.06-.14-1.95-1-.13-.32l-1.61-.67c-.94-.43-2.26-.94-3.1-1.17-.78-.27-2.03-.47-1.32-.36l-1.32-.35-1.34-.29-.02-.04c-1.3-.37-2.69-.54-4.11-.79-1.43-.17-2.89-.42-4.43-.68-.46-.02-.92-.05-1.46-.08-.54-.01-1.16-.04-1.92-.09l-.3-.17c-.59-.02-1.47-.04-2.27-.06s-1.52-.04-1.77.07c-.32-.1-.84-.13-1.48-.13-.63,0-1.38.04-2.14.14-.76.1-1.55.18-2.27.31-.72.13-1.38.24-1.9.3l-.03.26c-.71.09-1.38.28-2.11.45-.72.17-1.48.39-2.32.68l.17.2c-.71.3-1.67.48-2.72.78-.53.14-1.09.28-1.65.43-.56.17-1.13.37-1.7.59.12-.15.7-.34,1.13-.44-.72.12-1.44.34-2.14.61-.69.29-1.36.65-2.02,1-.66.34-1.28.75-1.91,1.09-.63.34-1.26.62-1.88.86-.52.4-.95.6-1.39.77.05-.03.1-.06.13-.09-.06.03-.15.08-.24.13-.28.1-.56.2-.86.34.27-.09.52-.18.73-.27-.44.25-1.06.7-1.66,1.15l-.44-.09c-.05.03-.09.06-.14.1-.69.3-.42.43.04.42-.3.24-.54.49-.71.7-.77-.06-1.52,1.23-2.48,1.31-.12.26-.84.87-1.51,1.51-.65.67-1.26,1.35-1.22,1.7-.07-.04-.26.07.04-.19-.68.48-1.33,1.01-1.75,1.63l-.55-.06c-.32.54-.61,1.1-.88,1.68-.95.61-1.39.84-.86-.18-.75,1.12-1.06,1.56-1.34,1.96-.28.4-.55.75-1.07,1.77l-.15-.27c-.5.64-.98,1.88-1.47,2.11-.75.55-2.1,2.34-3.48,4.52-1.35,2.21-2.73,4.79-3.9,6.82.61-.23.28.22-.1.79-.37.58-.81,1.28-.52,1.49-.3.17-.66.73-.55-.04-.37,1.14-.69,1.97-1,2.71-.31.74-.49,1.44-.43,2.31-.29.2-.17-.58-.36-.38,0,.2-.03.78-.22.99-.19.2-.08-.39-.07-.78-.16.59-.25,1.06-.27,1.44,0,.38.03.66.11.88.16.44.45.61.74.77-.28.56-.45.99-.52,1.4-.05.41,0,.8.13,1.27-.28.38-.62,1.04-.43-.45-.07.41-.44,1.66-.57,2.85-.16,1.18-.25,2.28.02,2.35-.15.25-.13,1.17-.09,1.39-.19,1.88-.17,2.05-.19,3.9l.1-.51c.59.73.14,1.53.25,3.02l-.06-.04c-.18,1.72-.03,2.08.02,2.44.09.36.09.71.07,2.41l.36-.23c.43.11.4.85.34,1.82-.03.96-.06,2.15.27,3.08l.09-.74c.22.5.12,1.27-.03,2.08-.14.8-.35,1.64-.24,2.17,0,.25-.22-.33-.35-.64.31,2.88.58.23,1.27,2.23-.14.45-.81-.29-.42,1.1.02.37.56,1.3,1.12,2.36.63,1.04,1.2,2.25,1.4,3.23,0-.47.02-.93.56-.11.65,1.33,1.08,4,2.32,4.88.05.19.04.28,0,.31.37.45.87,1.24,1.42,1.93.55.69,1.09,1.31,1.41,1.5-.12.4.13.92.53,1.52.4.59.96,1.25,1.54,1.83,1.13,1.21,2.25,2.21,1.83,2.56.4.43.78.88,1.2,1.3l1.25,1.24h-.14c.75.86,1.37,1.32,1.84,1.66.48.33.85.52,1.23.68.35.39,0,.21-.07.23,1.18,1.14,1.84,1.77,2.54,2.23.7.46,1.37.86,2.65,1.43l.05.42c.67.31,3.69,3.06,6.76,4.19-.04.02-.13.04-.38-.04,1.69.67,3.57,1.76,5.3,2.53,1.71.8,3.26,1.27,4.03,1.02.77.19,1.57.29,2.35.43-2.93-.88.55-.27-.62-.75.58.14,1.3.41,1.71.61.41.18.49.31-.23.14l-.21-.11c-.66.37,3.66,1.03,3.52,1.28,5.95,1.08,11.89,1.41,17.52.72-.23-.06-.45-.11-.67-.18.65-.06,1.3-.16,1.95-.24.52-.01.71.1-.68.29.75.04,2.32-.45,2.35-.53,2.72-.42-1.01.48-.18.33l1.13-.24-.26.02c.89-.29.97-.34,2.61-.74,1.05-.21.56,0,.97-.09,0,.02.14-.01.63-.15.8-.21,1.59-.46,2.39-.69l-1,.13c1.03-.38,2.23-.66,1.09-.5.84-.12,3.04-.83,5.08-1.71,1.03-.42,2-.92,2.8-1.28.79-.39,1.37-.71,1.61-.81.66-.39,1.32-.77,2-1.19.69-.42,1.43-.82,2.21-1.35-.4.24-.7.29.66-.57-.19.25.46-.1,1.26-.67.79-.57,1.8-1.24,2.34-1.62-.48.33.41-.4,1.23-1.07.82-.68,1.53-1.36.81-.8,1.02-.88.11,0,.9-.65,2.35-2.17,5.1-4.91,7.47-8.08.03-.06-.39.45.11-.23.46-.53.85-1.1,1.27-1.66.4-.62.4-.6,1.18-1.8-.12.17-.29.41,0-.03,4.24-6.49,7.19-14.18,8.42-21.94-.19,1.05-.06.35.08-.45-.09.52,0-.01-.02.09.14-1.09.29-2.17.4-3.26.03-.39.09-1.2.15-2.02.07-.85.06-1.67.07-1.84l-.03,1.04c.01-.69.01-.21-.02.42-.04.53-.08,1.02-.1,1.31-.03.42-.06.84-.1,1.33-.06.49-.13,1.03-.2,1.6-.12,1.14-.36,2.39-.58,3.64-.1.55.08-.47.03-.18-.09.64-.29,1.39-.61,2.8l.04-.16c-.21.99-.49,1.82-.7,2.59-.21.78-.46,1.47-.7,2.19-.24.71-.49,1.45-.83,2.24-.32.8-.67,1.7-1.16,2.73l.15-.3c-.41.87-.5,1.07-.69,1.49-.44,1.03,1.14-2.5.74-1.56-.16.33-.4.85-.69,1.48-.3.65-.72,1.4-1.09,2.14-.79,1.47-1.63,2.86-1.89,3.21-.82,1.26.27-.35-.55.91l-.23.32-.19.33c-.53.83-.88,1.19-.9,1.22.14-.19.4-.55.54-.76-.38.53-.91,1.24-1.37,1.89-.46.64-.91,1.17-1.05,1.34l.91-1.12c-2.44,3.3-5.97,6.87-8.98,9.43l.25-.17c-1.12,1.01-1.64,1.33-2.15,1.73-.51.39-1.07.77-2.43,1.72l.09-.08c-.51.42-1.26.9-2.03,1.38.68-.48-1.38.76-.48.13-2.79,1.7-1.36.87-3.18,2.05l-.48.16c-.63.38-.65.49-2.15,1.19,1.21-.61-1.02.31.33-.39-.81.31-1.51.6-2.12.87-.62.26-1.15.48-1.64.68-.96.43-1.73.7-2.54.79-.71.37.01.18.81-.07.81-.23,1.65-.61,1.25-.42.36-.09.07.07-.44.3-.52.22-1.26.48-1.78.64-.53.17-1,.24-1.69.33-.69.07-1.55.28-2.91.55.27-.06.28-.08.55-.14-.52.07-1.01.2-1.53.34-.52.14-1.07.27-1.72.29-.67.31-1.63.25-1.79.55l2.5-.48c-.71.15-1.38.36-2.18.56-.8.2-1.73.33-2.92.4.18-.08.88-.24,1.35-.33-.7,0-1.32.23-2.05.19.09-.14.86-.23,1.79-.35.47-.06.98-.11,1.46-.18.48-.09.94-.19,1.31-.3-.38,0-1.09.18-1.62.27-.53.09-.88.13-.51-.06-.53.25-1.21.31-1.98.37-.78.03-1.65.04-2.58.25l.11-.19c-.29.06-.9.15-1.45.15l.98-.24c-1.51.21-2.92-.14-4.36-.12,1.51.07,1.68.13,1.63.2-.05.08-.32.17.33.23-3.76.14-2.15-.51-6.3-.84.56.05,2.1.33,1.21.35-.79-.1-1.82-.33-2.29-.52-2.74-.36.39.28-.79.24-.9-.38-1.36-.13-2.58-.26l.03-.23c-3.06-.81-.92.31-3.66-.53l1.25-.04c-.49-.09-.98-.17-1.46-.28l.36-.18c-1.59-.28-2.08-.42-3.53-1.03.29.29-.34.37-1.67-.08-.84-.48.58-.03-1.27-.74.48,0,.99.03,1.72.53.11-.05.47,0,.58-.06-.91-.49-2.37-.98-3.03-1.24.25.12.55.25.69.35l-1.39-.38-1.38-.44c-.37-.29,0-.21.35-.13-.53-.23-.96-.26-1.73-.63.3-.11.35-.32,1.48.09-.86-.3-1.68-.66-2.52-1.01-.12-.17-1.09-.91-.74-.82-.6-.45-1.45-.82-2.34-1.23-.87-.46-1.82-.92-2.56-1.58-.11-.02-.3-.11-.67-.33-.37-.29-.72-.58-1.06-.88-.34-.31-.67-.61-1.01-.93-.34-.31-.71-.61-1.1-.91-.38-.32-.8-.62-1.27-.93-.2-.4-.42-.78-.6-1.2-1.31-1.13.81,1.64-1.39-.25-1.58-1.33-.26-.83-.66-1.44-.43-.28-1.04-.66-1.67-1.18-.62-.52-1.22-1.22-1.68-2.06.48.41.73.83,1.14,1.25M38.9,92.56c.19.37.7,1.06.62,1.42-.58-.28-.52-.7-.62-1.42M36.72,60.3c.04.33-.12.79-.39,1.29.06-.39.17-.83.39-1.29M109.52,20.23s-.03,0-.05,0c-.89-.37-.58-.24.05,0M111.37,20.99c.19.06.18.04.11,0-.14-.02-.55-.2-1.03-.39.12.08.35.2.91.4M104.53,130.04l-.39.06c.84-.25.61-.15.39-.06"/>
  </g>
  <g id="nom">
    <text class="cls-8" transform="translate(190.63 74.87)"><tspan x="0" y="0">Développeur fullstack / frontend</tspan></text>
    <text class="cls-37" transform="translate(190.63 29.19)"><tspan class="cls-70" x="0" y="0">A</tspan><tspan class="cls-97" x="19.12" y="0">nto</tspan><tspan class="cls-69" x="69.95" y="0">i</tspan><tspan class="cls-47" x="79.72" y="0">n</tspan><tspan class="cls-27" x="98.52" y="0">e</tspan></text>
    <text class="cls-37" transform="translate(190.63 56.19)"><tspan class="cls-69" x="0" y="0">R</tspan><tspan class="cls-47" x="17.22" y="0">o</tspan><tspan class="cls-69" x="37.3" y="0">ge</tspan><tspan class="cls-97" x="77.8" y="0">-</tspan><tspan class="cls-69" x="93.97" y="0">Pi</tspan><tspan class="cls-97" x="119.8" y="0">car</tspan><tspan x="172.55" y="0">d</tspan></text>
  </g>
  <g id="gauche">
    <g>
      <line class="cls-48" x1="17.17" y1="170.48" x2="152.35" y2="170.48"/>
      <text class="cls-5" transform="translate(46.45 199.25)"><tspan x="0" y="0">06 25 20 32 61</tspan></text>
      <text class="cls-5" transform="translate(46.45 225.25)"><tspan x="0" y="0">antoinerp@gmail.com</tspan></text>
      <text class="cls-5" transform="translate(46.45 251.26)"><tspan x="0" y="0">dangerzoneweb.fr</tspan></text>
      <text class="cls-5" transform="translate(46.45 277.26)"><tspan x="0" y="0">Paris</tspan></text>
      <g class="cls-84">
        <path class="cls-35" d="M20.84,218.65v-.93c0-.52.43-.95.95-.95h8.66c.53,0,.95.43.95.95v.93l1.22-1.22c.05-.05.08-.12.07-.19,0-.07-.04-.14-.1-.18l-5.89-4.58c-.34-.27-.83-.27-1.17,0l-5.89,4.58c-.06.04-.09.11-.1.18,0,.07.02.14.07.19l1.22,1.22Z"/>
      </g>
      <path class="cls-35" d="M33.79,218.17c-.09-.04-.2-.02-.28.06l-6.46,6.46c-.25.25-.58.38-.93.38s-.68-.14-.93-.38l-6.46-6.46c-.07-.07-.18-.09-.28-.06-.09.04-.16.13-.16.23v8.21c0,.58.47,1.04,1.04,1.04h13.56c.58,0,1.04-.47,1.04-1.04v-8.21c0-.1-.06-.2-.16-.23"/>
      <path class="cls-35" d="M29.01,218.23h-5.78c-.29,0-.52.23-.52.52s.23.52.52.52h5.78c.29,0,.52-.23.52-.52s-.23-.52-.52-.52"/>
      <path class="cls-35" d="M29.01,220.31h-5.78c-.29,0-.52.23-.52.52s.23.52.52.52h5.78c.29,0,.52-.23.52-.52s-.23-.52-.52-.52"/>
      <path class="cls-15" d="M29.29,253.3s.03-.02.05-.03c0,0-.01-.01-.01-.03-.01.02-.02.04-.03.05"/>
      <path class="cls-35" d="M30.79,250.65l3.24-.64-8.13-5.07-.19.14,1.81,9.4,1.76-2.79,1.71,2.5c.33.47.92.62,1.34.34.41-.29.48-.9.16-1.37l-1.71-2.5Z"/>
      <path class="cls-35" d="M26.07,253.05c-1.3,0-2.52-.37-3.56-1.01.93,0-.69-1.42.43-1.64,1.17-.23,1.67-1.58,1.29-1.56-.38.02-1.09-.19-1.59-.82-.51-.64-.95-.49-1.47-.39-.45.09-1.01,1.4-1.15,1.75-.36-.68-.6-1.42-.7-2.21.58-.3,1.52-.81,1.86-1.09.5-.41-.17-.58-.25-.83-.08-.25,0-.84,0-1.42s1.17-.59,1.58-1.17c.3-.42-.25-1.33-.59-1.83,1.15-.89,2.59-1.42,4.14-1.42.41,0,.82.04,1.21.11.11.72.36,1.71.82,1.96.75.42,1.66,1.34,2,1.5.33.16.75,1.58.67,2.17-.06.41-.57.86-.78,1.3l3.47,2.16c.25-.75.38-1.56.38-2.39,0-4.29-3.49-7.77-7.77-7.77s-7.77,3.48-7.77,7.77,3.48,7.77,7.77,7.77c.16,0,.32-.02.48-.02l-.18-.95c-.1,0-.2.02-.3.02M32.81,247.24c-.15-.58-.43-1.15-1.04-1.58-.41-.29-.75-1.58-.5-2,.15-.25.54-.47.83-.61.5.95.79,2.03.79,3.18,0,.34-.04.68-.08,1.01"/>
      <g class="cls-65">
        <path class="cls-35" d="M33.58,278.93l-4.9-1.69c.14-.19.29-.38.43-.58,1.79-2.44,2.69-4.34,2.69-5.63,0-3.13-2.54-5.67-5.67-5.67s-5.67,2.54-5.67,5.67c0,1.29.91,3.19,2.69,5.63.15.2.29.39.44.58l-4.9,1.68c-.19.06-.32.24-.32.44s.13.38.32.45l7.28,2.5s.1.03.15.03.1,0,.15-.03l7.31-2.5c.19-.07.32-.25.32-.45,0-.2-.13-.38-.32-.44M30.86,271.03c0,2.04-3.14,6.04-4.73,7.84-1.59-1.8-4.73-5.8-4.73-7.84,0-2.61,2.12-4.73,4.73-4.73s4.73,2.12,4.73,4.73M26.12,281.38l-5.83-2.01,3.91-1.34c.87,1.08,1.55,1.83,1.58,1.87.09.1.21.15.35.15s.26-.06.35-.15c.04-.04.72-.79,1.59-1.88l3.91,1.34-5.86,2.01Z"/>
        <path class="cls-35" d="M26.13,273.18c1.34,0,2.42-1.09,2.42-2.42s-1.09-2.42-2.42-2.42-2.42,1.09-2.42,2.42,1.09,2.42,2.42,2.42M27.61,270.76c0,.82-.66,1.48-1.48,1.48s-1.48-.66-1.48-1.48.66-1.48,1.48-1.48,1.48.66,1.48,1.48"/>
      </g>
      <g class="cls-88">
        <path class="cls-35" d="M29.15,188c-2.66,0-4.81,1.71-4.81,3.81,0,1.25.77,2.36,1.95,3.05-.11.63-.48,1.38-1,1.89,1.25-.09,2.36-.45,3.08-1.19.25.03.51.05.78.05,2.66,0,4.81-1.7,4.81-3.81s-2.15-3.81-4.81-3.81M26.9,192.56c-.42,0-.75-.34-.75-.75s.34-.75.75-.75.75.34.75.75-.34.75-.75.75M29.15,192.56c-.41,0-.75-.34-.75-.75s.34-.75.75-.75.75.34.75.75-.34.75-.75.75M31.41,192.56c-.41,0-.75-.34-.75-.75s.34-.75.75-.75.75.34.75.75-.34.75-.75.75M28.22,200.57c-1.53-1.23-1.95-.62-2.64.07-.48.48-1.71-.53-2.76-1.58-1.06-1.06-2.07-2.28-1.58-2.76.69-.69,1.29-1.12.07-2.64-1.23-1.53-2.04-.35-2.71.32-.77.77-.04,3.66,2.81,6.51,2.85,2.85,5.73,3.58,6.51,2.81.67-.67,1.84-1.49.32-2.71M20.2,194.48s-.05.02-.09.04c-.07.03-.16.06-.26.1-.04.02-.1.04-.14.07-.05.03-.1.06-.14.1-.05.04-.08.09-.12.14-.03.06-.07.11-.09.18-.03.07-.04.14-.06.21-.01.07-.02.15-.03.23,0,.15,0,.3.03.43,0,.13.04.24.06.31.02.08.02.12.02.12,0,0-.02-.04-.06-.1-.04-.07-.1-.15-.16-.28-.06-.12-.13-.27-.19-.43-.02-.09-.05-.17-.06-.27-.01-.1-.03-.19-.02-.3,0-.1.02-.21.04-.32.03-.1.06-.21.11-.3.05-.1.1-.18.16-.26.06-.08.12-.14.17-.2.11-.11.21-.19.27-.24.03-.03.05-.04.06-.06.01-.01.02-.02.02-.02l.52.82s-.01,0-.03.01M28.05,202.25c-.05.06-.13.16-.24.28-.06.05-.12.12-.19.17-.07.06-.15.11-.24.16-.09.05-.19.09-.29.12-.1.03-.2.06-.3.06h-.15s-.15,0-.15,0c-.1,0-.19-.03-.27-.04-.09-.02-.16-.05-.24-.07-.08-.02-.14-.06-.2-.08-.12-.05-.21-.11-.28-.14-.07-.04-.1-.06-.1-.06,0,0,.04,0,.12.02.07,0,.18.03.31.04.06,0,.13.01.2,0,.07,0,.15,0,.22-.02.07-.02.15-.02.22-.04l.11-.03.1-.05c.26-.13.4-.35.49-.54.04-.1.07-.18.09-.25.02-.07.04-.11.04-.11l.85.48s-.03.03-.08.09"/>
      </g>
      <text class="cls-38" transform="translate(18.3 165.67)"><tspan x="0" y="0">CON</tspan><tspan class="cls-18" x="33.51" y="0">T</tspan><tspan x="40.05" y="0">ACT</tspan></text>
    </g>
    <g>
      <line class="cls-48" x1="17.17" y1="316.38" x2="152.35" y2="316.38"/>
      <text class="cls-38" transform="translate(18.14 311.33)"><tspan x="0" y="0">PROFIL</tspan></text>
      <text class="cls-19" transform="translate(12.62 333.69)"><tspan x="0" y="0">Ancienneme</tspan><tspan class="cls-61" x="61.18" y="0">n</tspan><tspan x="67.38" y="0">t</tspan><tspan class="cls-76" x="71.4" y="0"> </tspan><tspan x="82.7" y="0">p</tspan><tspan class="cls-74" x="89.01" y="0">r</tspan><tspan x="93" y="0">o</tspan><tspan class="cls-51" x="99.33" y="0">f</tspan><tspan x="102.69" y="0">essionnel </tspan><tspan x="0" y="14.4">de</tspan><tspan class="cls-66" x="12.28" y="14.4"> </tspan><tspan x="15.45" y="14.4">la</tspan><tspan class="cls-54" x="23.96" y="14.4"> </tspan><tspan class="cls-73" x="27.13" y="14.4">c</tspan><tspan x="32.11" y="14.4">ommuni</tspan><tspan class="cls-73" x="72.97" y="14.4">c</tspan><tspan class="cls-61" x="77.95" y="14.4">a</tspan><tspan x="83.58" y="14.4">tion,</tspan><tspan class="cls-66" x="105.9" y="14.4"> </tspan><tspan x="109.07" y="14.4">je</tspan><tspan class="cls-54" x="117.91" y="14.4"> </tspan><tspan x="121.09" y="14.4">suis</tspan><tspan class="cls-66" x="139.54" y="14.4"> </tspan><tspan x="142.72" y="14.4">à </tspan><tspan x="0" y="28.8">la</tspan><tspan class="cls-55" x="8.5" y="28.8"> </tspan><tspan class="cls-52" x="12.4" y="28.8">r</tspan><tspan x="16.43" y="28.8">eche</tspan><tspan class="cls-94" x="39.75" y="28.8">r</tspan><tspan x="43.75" y="28.8">che</tspan><tspan class="cls-91" x="61.1" y="28.8"> </tspan><tspan x="65" y="28.8">d</tspan><tspan class="cls-99" x="71.31" y="28.8">’</tspan><tspan x="74.04" y="28.8">une</tspan><tspan class="cls-55" x="92.62" y="28.8"> </tspan><tspan x="96.51" y="28.8">al</tspan><tspan class="cls-58" x="105.02" y="28.8">t</tspan><tspan x="108.91" y="28.8">ernance </tspan><tspan x="0" y="43.2">d</tspan><tspan class="cls-99" x="6.3" y="43.2">’</tspan><tspan x="9.04" y="43.2">une</tspan><tspan class="cls-80" x="27.62" y="43.2"> </tspan><tspan x="32.82" y="43.2">du</tspan><tspan class="cls-52" x="45.43" y="43.2">r</tspan><tspan x="49.46" y="43.2">ée</tspan><tspan class="cls-46" x="61.4" y="43.2"> </tspan><tspan x="66.61" y="43.2">de</tspan><tspan class="cls-80" x="78.88" y="43.2"> </tspan><tspan x="84.09" y="43.2">1</tspan><tspan class="cls-80" x="90.18" y="43.2"> </tspan><tspan x="95.38" y="43.2">an</tspan><tspan class="cls-46" x="107.44" y="43.2"> </tspan><tspan class="cls-60" x="112.65" y="43.2">a</tspan><tspan x="118.32" y="43.2">fin</tspan><tspan class="cls-80" x="130.98" y="43.2"> </tspan><tspan x="136.19" y="43.2">de </tspan><tspan class="cls-73" x="0" y="57.6">c</tspan><tspan x="4.97" y="57.6">onclu</tspan><tspan class="cls-52" x="31.74" y="57.6">r</tspan><tspan x="35.77" y="57.6">e</tspan><tspan class="cls-56" x="41.74" y="57.6"> </tspan><tspan x="57.76" y="57.6">mon</tspan><tspan class="cls-96" x="79.98" y="57.6"> </tspan><tspan x="96.01" y="57.6">c</tspan><tspan class="cls-93" x="101.08" y="57.6">y</tspan><tspan x="106.36" y="57.6">cle</tspan><tspan class="cls-56" x="120.16" y="57.6"> </tspan><tspan x="136.19" y="57.6">de </tspan><tspan class="cls-52" x="0" y="72">r</tspan><tspan x="4.03" y="72">e</tspan><tspan class="cls-73" x="10" y="72">c</tspan><tspan x="14.97" y="72">o</tspan><tspan class="cls-68" x="21.3" y="72">n</tspan><tspan class="cls-89" x="27.4" y="72">v</tspan><tspan x="32.71" y="72">e</tspan><tspan class="cls-28" x="38.68" y="72">r</tspan><tspan x="42.66" y="72">sion</tspan><tspan class="cls-92" x="62.74" y="72"> </tspan><tspan x="74.42" y="72">en</tspan><tspan class="cls-79" x="86.69" y="72"> </tspan><tspan class="cls-67" x="98.37" y="72">t</tspan><tspan x="102.24" y="72">a</tspan><tspan class="cls-61" x="107.99" y="72">n</tspan><tspan x="114.19" y="72">t</tspan><tspan class="cls-92" x="118.2" y="72"> </tspan><tspan x="129.88" y="72">que </tspan><tspan x="0" y="86.4">d</tspan><tspan class="cls-82" x="6.3" y="86.4">é</tspan><tspan class="cls-89" x="12.22" y="86.4">v</tspan><tspan x="17.52" y="86.4">eloppeur full</tspan><tspan class="cls-100" x="79.83" y="86.4">s</tspan><tspan class="cls-67" x="84.39" y="86.4">t</tspan><tspan x="88.26" y="86.4">ack.</tspan><tspan x="0" y="115.2">C</tspan><tspan class="cls-93" x="6.4" y="115.2">y</tspan><tspan x="11.68" y="115.2">cle : 4 jou</tspan><tspan class="cls-28" x="58.41" y="115.2">r</tspan><tspan x="62.39" y="115.2">s en e</tspan><tspan class="cls-61" x="90.76" y="115.2">n</tspan><tspan x="96.95" y="115.2">t</tspan><tspan class="cls-52" x="100.97" y="115.2">r</tspan><tspan x="104.99" y="115.2">eprise</tspan></text>
    </g>
    <g>
      <line class="cls-48" x1="17.17" y1="484.48" x2="152.35" y2="484.48"/>
      <text class="cls-38" transform="translate(17.17 478.29)"><tspan class="cls-53" x="0" y="0">I</tspan><tspan class="cls-22" x="6.5" y="0">NT</tspan><tspan class="cls-72" x="28.77" y="0">E</tspan><tspan class="cls-22" x="40.11" y="0">R</tspan><tspan class="cls-53" x="51" y="0">E</tspan><tspan class="cls-71" x="62.34" y="0">T</tspan><tspan x="72.55" y="0">S</tspan></text>
      <text class="cls-6" transform="translate(24.34 504.62)"><tspan x="0" y="0">Musique</tspan></text>
      <text class="cls-6" transform="translate(24.34 523.62)"><tspan x="0" y="0">Cinéma</tspan></text>
      <text class="cls-6" transform="translate(24.34 542.61)"><tspan x="0" y="0">hiking</tspan></text>
      <text class="cls-6" transform="translate(24.34 561.61)"><tspan x="0" y="0">Foot US</tspan></text>
      <text class="cls-6" transform="translate(101.45 506.04)"><tspan x="0" y="0">Bières</tspan></text>
      <text class="cls-6" transform="translate(101.45 525.03)"><tspan x="0" y="0">Rugby</tspan></text>
      <text class="cls-6" transform="translate(101.45 544.03)"><tspan x="0" y="0">Jeux de société</tspan></text>
      <text class="cls-6" transform="translate(101.45 563.03)"><tspan x="0" y="0">Blogging</tspan></text>
      <polygon class="cls-15" points="90.28 501.05 93.38 502.84 90.28 504.63 90.28 501.05"/>
      <polygon class="cls-15" points="90.28 520.21 93.38 522 90.28 523.79 90.28 520.21"/>
      <polygon class="cls-15" points="90.28 538.46 93.38 540.25 90.28 542.04 90.28 538.46"/>
      <polygon class="cls-15" points="90.28 557.23 93.38 559.02 90.28 560.81 90.28 557.23"/>
      <line class="cls-48" x1="30.17" y1="584.46" x2="104.13" y2="584.46"/>
      <text class="cls-23" transform="translate(30.17 582.55)"><tspan class="cls-81" x="0" y="0">Ins</tspan><tspan class="cls-50" x="13.37" y="0">t</tspan><tspan class="cls-75" x="18.13" y="0">rument</tspan><tspan x="49.51" y="0">s</tspan></text>
      <text class="cls-14" transform="translate(30.17 599.89) scale(1 1.22)"><tspan x="0" y="0">GUITARE</tspan></text>
      <text class="cls-14" transform="translate(30.17 615.68) scale(1 1.22)"><tspan x="0" y="0">BASSE</tspan></text>
      <text class="cls-14" transform="translate(30.17 631.48) scale(1 1.22)"><tspan x="0" y="0">SAXOPHONE</tspan></text>
      <g class="cls-57">
        <polygon class="cls-15" points="84.19 639.8 51.03 617.59 51.16 617.2 84.32 639.4 84.19 639.8"/>
        <polygon class="cls-15" points="86.87 639.8 53.71 617.59 53.84 617.2 87 639.4 86.87 639.8"/>
        <polygon class="cls-15" points="89.55 639.8 56.39 617.59 56.52 617.2 89.68 639.4 89.55 639.8"/>
        <polygon class="cls-15" points="92.23 639.8 59.07 617.59 59.2 617.2 92.36 639.4 92.23 639.8"/>
        <polygon class="cls-15" points="94.91 639.8 61.75 617.59 61.88 617.2 95.04 639.4 94.91 639.8"/>
        <polygon class="cls-15" points="97.59 639.8 64.43 617.59 64.56 617.2 97.72 639.4 97.59 639.8"/>
        <polygon class="cls-15" points="100.27 639.8 67.11 617.59 67.24 617.2 100.4 639.4 100.27 639.8"/>
        <polygon class="cls-15" points="102.95 639.8 69.79 617.59 69.92 617.2 103.08 639.4 102.95 639.8"/>
        <polygon class="cls-15" points="105.63 639.8 72.47 617.59 72.6 617.2 105.76 639.4 105.63 639.8"/>
        <polygon class="cls-15" points="108.31 639.8 75.15 617.59 75.28 617.2 108.44 639.4 108.31 639.8"/>
        <polygon class="cls-15" points="110.99 639.8 77.83 617.59 77.96 617.2 111.12 639.4 110.99 639.8"/>
        <polygon class="cls-15" points="113.67 639.8 80.51 617.59 80.64 617.2 113.8 639.4 113.67 639.8"/>
        <polygon class="cls-15" points="116.35 639.8 83.19 617.59 83.32 617.2 116.48 639.4 116.35 639.8"/>
        <polygon class="cls-15" points="119.03 639.8 85.87 617.59 86 617.2 119.16 639.4 119.03 639.8"/>
        <polygon class="cls-15" points="121.71 639.8 88.55 617.59 88.68 617.2 121.84 639.4 121.71 639.8"/>
        <polygon class="cls-15" points="124.39 639.8 91.23 617.59 91.36 617.2 124.52 639.4 124.39 639.8"/>
        <polygon class="cls-15" points="127.07 639.8 93.91 617.59 94.04 617.2 127.2 639.4 127.07 639.8"/>
        <polygon class="cls-15" points="129.75 639.8 96.59 617.59 96.72 617.2 129.88 639.4 129.75 639.8"/>
        <polygon class="cls-15" points="132.43 639.8 99.27 617.59 99.4 617.2 132.56 639.4 132.43 639.8"/>
        <polygon class="cls-15" points="135.11 639.8 101.95 617.59 102.08 617.2 135.24 639.4 135.11 639.8"/>
        <polygon class="cls-15" points="137.79 639.8 104.63 617.59 104.76 617.2 137.92 639.4 137.79 639.8"/>
        <polygon class="cls-15" points="140.47 639.8 107.31 617.59 107.44 617.2 140.6 639.4 140.47 639.8"/>
        <polygon class="cls-15" points="143.15 639.8 109.99 617.59 110.12 617.2 143.28 639.4 143.15 639.8"/>
        <polygon class="cls-15" points="145.83 639.8 112.67 617.59 112.8 617.2 145.96 639.4 145.83 639.8"/>
        <polygon class="cls-15" points="148.51 639.8 115.35 617.59 115.48 617.2 148.64 639.4 148.51 639.8"/>
        <polygon class="cls-15" points="151.19 639.8 118.03 617.59 118.16 617.2 151.32 639.4 151.19 639.8"/>
        <polygon class="cls-15" points="153.87 639.8 120.71 617.59 120.84 617.2 154 639.4 153.87 639.8"/>
        <polygon class="cls-15" points="156.55 639.8 123.39 617.59 123.52 617.2 156.68 639.4 156.55 639.8"/>
        <polygon class="cls-15" points="159.23 639.8 126.07 617.59 126.2 617.2 159.36 639.4 159.23 639.8"/>
        <polygon class="cls-15" points="161.91 639.8 128.75 617.59 128.88 617.2 162.04 639.4 161.91 639.8"/>
        <polygon class="cls-15" points="164.59 639.8 131.43 617.59 131.56 617.2 164.72 639.4 164.59 639.8"/>
        <polygon class="cls-15" points="167.27 639.8 134.11 617.59 134.24 617.2 167.4 639.4 167.27 639.8"/>
        <polygon class="cls-15" points="169.95 639.8 136.79 617.59 136.92 617.2 170.08 639.4 169.95 639.8"/>
        <polygon class="cls-15" points="172.63 639.8 139.47 617.59 139.6 617.2 172.76 639.4 172.63 639.8"/>
        <polygon class="cls-15" points="175.31 639.8 142.15 617.59 142.28 617.2 175.44 639.4 175.31 639.8"/>
        <polygon class="cls-15" points="177.99 639.8 144.83 617.59 144.96 617.2 178.12 639.4 177.99 639.8"/>
        <polygon class="cls-15" points="180.67 639.8 147.51 617.59 147.64 617.2 180.8 639.4 180.67 639.8"/>
        <polygon class="cls-15" points="183.35 639.8 150.19 617.59 150.32 617.2 183.48 639.4 183.35 639.8"/>
        <polygon class="cls-15" points="186.03 639.8 152.87 617.59 153 617.2 186.16 639.4 186.03 639.8"/>
        <polygon class="cls-15" points="188.71 639.8 155.55 617.59 155.68 617.2 188.84 639.4 188.71 639.8"/>
        <polygon class="cls-15" points="191.39 639.8 158.23 617.59 158.36 617.2 191.52 639.4 191.39 639.8"/>
        <polygon class="cls-15" points="194.07 639.8 160.91 617.59 161.04 617.2 194.2 639.4 194.07 639.8"/>
        <polygon class="cls-15" points="196.75 639.8 163.59 617.59 163.72 617.2 196.88 639.4 196.75 639.8"/>
        <polygon class="cls-15" points="199.43 639.8 166.27 617.59 166.4 617.2 199.56 639.4 199.43 639.8"/>
        <polygon class="cls-15" points="202.11 639.8 168.95 617.59 169.08 617.2 202.24 639.4 202.11 639.8"/>
        <polygon class="cls-15" points="204.79 639.8 171.63 617.59 171.76 617.2 204.92 639.4 204.79 639.8"/>
        <polygon class="cls-15" points="207.47 639.8 174.31 617.59 174.44 617.2 207.6 639.4 207.47 639.8"/>
        <polygon class="cls-15" points="210.15 639.8 176.99 617.59 177.12 617.2 210.28 639.4 210.15 639.8"/>
        <polygon class="cls-15" points="212.83 639.8 179.67 617.59 179.8 617.2 212.96 639.4 212.83 639.8"/>
        <polygon class="cls-15" points="215.51 639.8 182.35 617.59 182.48 617.2 215.64 639.4 215.51 639.8"/>
        <polygon class="cls-15" points="218.19 639.8 185.03 617.59 185.16 617.2 218.32 639.4 218.19 639.8"/>
        <polygon class="cls-15" points="220.87 639.8 187.71 617.59 187.84 617.2 221 639.4 220.87 639.8"/>
        <polygon class="cls-15" points="223.55 639.8 190.39 617.59 190.52 617.2 223.68 639.4 223.55 639.8"/>
        <polygon class="cls-15" points="226.23 639.8 193.07 617.59 193.2 617.2 226.36 639.4 226.23 639.8"/>
        <polygon class="cls-15" points="228.91 639.8 195.75 617.59 195.88 617.2 229.04 639.4 228.91 639.8"/>
        <polygon class="cls-15" points="231.59 639.8 198.43 617.59 198.56 617.2 231.72 639.4 231.59 639.8"/>
        <polygon class="cls-15" points="234.27 639.8 201.11 617.59 201.24 617.2 234.4 639.4 234.27 639.8"/>
        <polygon class="cls-15" points="236.95 639.8 203.79 617.59 203.92 617.2 237.08 639.4 236.95 639.8"/>
        <polygon class="cls-15" points="239.63 639.8 206.47 617.59 206.6 617.2 239.76 639.4 239.63 639.8"/>
        <polygon class="cls-15" points="242.31 639.8 209.15 617.59 209.28 617.2 242.44 639.4 242.31 639.8"/>
        <polygon class="cls-15" points="244.99 639.8 211.83 617.59 211.96 617.2 245.12 639.4 244.99 639.8"/>
        <polygon class="cls-15" points="247.67 639.8 214.51 617.59 214.64 617.2 247.8 639.4 247.67 639.8"/>
        <polygon class="cls-15" points="250.35 639.8 217.19 617.59 217.32 617.2 250.48 639.4 250.35 639.8"/>
        <polygon class="cls-15" points="253.03 639.8 219.87 617.59 220 617.2 253.16 639.4 253.03 639.8"/>
        <polygon class="cls-15" points="255.71 639.8 222.55 617.59 222.67 617.2 255.84 639.4 255.71 639.8"/>
        <polygon class="cls-15" points="258.39 639.8 225.23 617.59 225.35 617.2 258.52 639.4 258.39 639.8"/>
        <polygon class="cls-15" points="261.07 639.8 227.91 617.59 228.03 617.2 261.2 639.4 261.07 639.8"/>
        <polygon class="cls-15" points="263.75 639.8 230.59 617.59 230.71 617.2 263.88 639.4 263.75 639.8"/>
        <polygon class="cls-15" points="266.43 639.8 233.27 617.59 233.39 617.2 266.56 639.4 266.43 639.8"/>
        <polygon class="cls-15" points="269.11 639.8 235.95 617.59 236.07 617.2 269.24 639.4 269.11 639.8"/>
        <polygon class="cls-15" points="271.79 639.8 238.62 617.59 238.75 617.2 271.92 639.4 271.79 639.8"/>
        <polygon class="cls-15" points="274.47 639.8 241.31 617.59 241.43 617.2 274.6 639.4 274.47 639.8"/>
        <polygon class="cls-15" points="277.15 639.8 243.99 617.59 244.11 617.2 277.28 639.4 277.15 639.8"/>
        <polygon class="cls-15" points="279.83 639.8 246.67 617.59 246.79 617.2 279.96 639.4 279.83 639.8"/>
        <polygon class="cls-15" points="282.51 639.8 249.35 617.59 249.47 617.2 282.64 639.4 282.51 639.8"/>
        <polygon class="cls-15" points="285.19 639.8 252.03 617.59 252.15 617.2 285.32 639.4 285.19 639.8"/>
        <polygon class="cls-15" points="287.87 639.8 254.71 617.59 254.83 617.2 288 639.4 287.87 639.8"/>
        <polygon class="cls-15" points="290.55 639.8 257.39 617.59 257.51 617.2 290.68 639.4 290.55 639.8"/>
        <polygon class="cls-15" points="293.23 639.8 260.07 617.59 260.19 617.2 293.36 639.4 293.23 639.8"/>
        <polygon class="cls-15" points="295.91 639.8 262.75 617.59 262.87 617.2 296.04 639.4 295.91 639.8"/>
      </g>
      <path class="cls-35" d="M128.13,634.32h-33.11c-1.74,0-3.15-2.03-3.15-4.54s1.41-4.53,3.15-4.53h33.11v9.07Z"/>
      <g class="cls-62">
        <polygon class="cls-15" points="84.19 623.58 51.03 601.37 51.16 600.98 84.32 623.18 84.19 623.58"/>
        <polygon class="cls-15" points="86.87 623.58 53.71 601.37 53.84 600.98 87 623.18 86.87 623.58"/>
        <polygon class="cls-15" points="89.55 623.58 56.39 601.37 56.52 600.98 89.68 623.18 89.55 623.58"/>
        <polygon class="cls-15" points="92.23 623.58 59.07 601.37 59.2 600.98 92.36 623.18 92.23 623.58"/>
        <polygon class="cls-15" points="94.91 623.58 61.75 601.37 61.88 600.98 95.04 623.18 94.91 623.58"/>
        <polygon class="cls-15" points="97.59 623.58 64.43 601.37 64.56 600.98 97.72 623.18 97.59 623.58"/>
        <polygon class="cls-15" points="100.27 623.58 67.11 601.37 67.24 600.98 100.4 623.18 100.27 623.58"/>
        <polygon class="cls-15" points="102.95 623.58 69.79 601.37 69.92 600.98 103.08 623.18 102.95 623.58"/>
        <polygon class="cls-15" points="105.63 623.58 72.47 601.37 72.6 600.98 105.76 623.18 105.63 623.58"/>
        <polygon class="cls-15" points="108.31 623.58 75.15 601.37 75.28 600.98 108.44 623.18 108.31 623.58"/>
        <polygon class="cls-15" points="110.99 623.58 77.83 601.37 77.96 600.98 111.12 623.18 110.99 623.58"/>
        <polygon class="cls-15" points="113.67 623.58 80.51 601.37 80.64 600.98 113.8 623.18 113.67 623.58"/>
        <polygon class="cls-15" points="116.35 623.58 83.19 601.37 83.32 600.98 116.48 623.18 116.35 623.58"/>
        <polygon class="cls-15" points="119.03 623.58 85.87 601.37 86 600.98 119.16 623.18 119.03 623.58"/>
        <polygon class="cls-15" points="121.71 623.58 88.55 601.37 88.68 600.98 121.84 623.18 121.71 623.58"/>
        <polygon class="cls-15" points="124.39 623.58 91.23 601.37 91.36 600.98 124.52 623.18 124.39 623.58"/>
        <polygon class="cls-15" points="127.07 623.58 93.91 601.37 94.04 600.98 127.2 623.18 127.07 623.58"/>
        <polygon class="cls-15" points="129.75 623.58 96.59 601.37 96.72 600.98 129.88 623.18 129.75 623.58"/>
        <polygon class="cls-15" points="132.43 623.58 99.27 601.37 99.4 600.98 132.56 623.18 132.43 623.58"/>
        <polygon class="cls-15" points="135.11 623.58 101.95 601.37 102.08 600.98 135.24 623.18 135.11 623.58"/>
        <polygon class="cls-15" points="137.79 623.58 104.63 601.37 104.76 600.98 137.92 623.18 137.79 623.58"/>
        <polygon class="cls-15" points="140.47 623.58 107.31 601.37 107.44 600.98 140.6 623.18 140.47 623.58"/>
        <polygon class="cls-15" points="143.15 623.58 109.99 601.37 110.12 600.98 143.28 623.18 143.15 623.58"/>
        <polygon class="cls-15" points="145.83 623.58 112.67 601.37 112.8 600.98 145.96 623.18 145.83 623.58"/>
        <polygon class="cls-15" points="148.51 623.58 115.35 601.37 115.48 600.98 148.64 623.18 148.51 623.58"/>
        <polygon class="cls-15" points="151.19 623.58 118.03 601.37 118.16 600.98 151.32 623.18 151.19 623.58"/>
        <polygon class="cls-15" points="153.87 623.58 120.71 601.37 120.84 600.98 154 623.18 153.87 623.58"/>
        <polygon class="cls-15" points="156.55 623.58 123.39 601.37 123.52 600.98 156.68 623.18 156.55 623.58"/>
        <polygon class="cls-15" points="159.23 623.58 126.07 601.37 126.2 600.98 159.36 623.18 159.23 623.58"/>
        <polygon class="cls-15" points="161.91 623.58 128.75 601.37 128.88 600.98 162.04 623.18 161.91 623.58"/>
        <polygon class="cls-15" points="164.59 623.58 131.43 601.37 131.56 600.98 164.72 623.18 164.59 623.58"/>
        <polygon class="cls-15" points="167.27 623.58 134.11 601.37 134.24 600.98 167.4 623.18 167.27 623.58"/>
        <polygon class="cls-15" points="169.95 623.58 136.79 601.37 136.92 600.98 170.08 623.18 169.95 623.58"/>
        <polygon class="cls-15" points="172.63 623.58 139.47 601.37 139.6 600.98 172.76 623.18 172.63 623.58"/>
        <polygon class="cls-15" points="175.31 623.58 142.15 601.37 142.28 600.98 175.44 623.18 175.31 623.58"/>
        <polygon class="cls-15" points="177.99 623.58 144.83 601.37 144.96 600.98 178.12 623.18 177.99 623.58"/>
        <polygon class="cls-15" points="180.67 623.58 147.51 601.37 147.64 600.98 180.8 623.18 180.67 623.58"/>
        <polygon class="cls-15" points="183.35 623.58 150.19 601.37 150.32 600.98 183.48 623.18 183.35 623.58"/>
        <polygon class="cls-15" points="186.03 623.58 152.87 601.37 153 600.98 186.16 623.18 186.03 623.58"/>
        <polygon class="cls-15" points="188.71 623.58 155.55 601.37 155.68 600.98 188.84 623.18 188.71 623.58"/>
        <polygon class="cls-15" points="191.39 623.58 158.23 601.37 158.36 600.98 191.52 623.18 191.39 623.58"/>
        <polygon class="cls-15" points="194.07 623.58 160.91 601.37 161.04 600.98 194.2 623.18 194.07 623.58"/>
        <polygon class="cls-15" points="196.75 623.58 163.59 601.37 163.72 600.98 196.88 623.18 196.75 623.58"/>
        <polygon class="cls-15" points="199.43 623.58 166.27 601.37 166.4 600.98 199.56 623.18 199.43 623.58"/>
        <polygon class="cls-15" points="202.11 623.58 168.95 601.37 169.08 600.98 202.24 623.18 202.11 623.58"/>
        <polygon class="cls-15" points="204.79 623.58 171.63 601.37 171.76 600.98 204.92 623.18 204.79 623.58"/>
        <polygon class="cls-15" points="207.47 623.58 174.31 601.37 174.44 600.98 207.6 623.18 207.47 623.58"/>
        <polygon class="cls-15" points="210.15 623.58 176.99 601.37 177.12 600.98 210.28 623.18 210.15 623.58"/>
        <polygon class="cls-15" points="212.83 623.58 179.67 601.37 179.8 600.98 212.96 623.18 212.83 623.58"/>
        <polygon class="cls-15" points="215.51 623.58 182.35 601.37 182.48 600.98 215.64 623.18 215.51 623.58"/>
        <polygon class="cls-15" points="218.19 623.58 185.03 601.37 185.16 600.98 218.32 623.18 218.19 623.58"/>
        <polygon class="cls-15" points="220.87 623.58 187.71 601.37 187.84 600.98 221 623.18 220.87 623.58"/>
        <polygon class="cls-15" points="223.55 623.58 190.39 601.37 190.52 600.98 223.68 623.18 223.55 623.58"/>
        <polygon class="cls-15" points="226.23 623.58 193.07 601.37 193.2 600.98 226.36 623.18 226.23 623.58"/>
        <polygon class="cls-15" points="228.91 623.58 195.75 601.37 195.88 600.98 229.04 623.18 228.91 623.58"/>
        <polygon class="cls-15" points="231.59 623.58 198.43 601.37 198.56 600.98 231.72 623.18 231.59 623.58"/>
        <polygon class="cls-15" points="234.27 623.58 201.11 601.37 201.24 600.98 234.4 623.18 234.27 623.58"/>
        <polygon class="cls-15" points="236.95 623.58 203.79 601.37 203.92 600.98 237.08 623.18 236.95 623.58"/>
        <polygon class="cls-15" points="239.63 623.58 206.47 601.37 206.6 600.98 239.76 623.18 239.63 623.58"/>
        <polygon class="cls-15" points="242.31 623.58 209.15 601.37 209.28 600.98 242.44 623.18 242.31 623.58"/>
        <polygon class="cls-15" points="244.99 623.58 211.83 601.37 211.96 600.98 245.12 623.18 244.99 623.58"/>
        <polygon class="cls-15" points="247.67 623.58 214.51 601.37 214.64 600.98 247.8 623.18 247.67 623.58"/>
        <polygon class="cls-15" points="250.35 623.58 217.19 601.37 217.32 600.98 250.48 623.18 250.35 623.58"/>
        <polygon class="cls-15" points="253.03 623.58 219.87 601.37 220 600.98 253.16 623.18 253.03 623.58"/>
        <polygon class="cls-15" points="255.71 623.58 222.55 601.37 222.67 600.98 255.84 623.18 255.71 623.58"/>
        <polygon class="cls-15" points="258.39 623.58 225.23 601.37 225.35 600.98 258.52 623.18 258.39 623.58"/>
        <polygon class="cls-15" points="261.07 623.58 227.91 601.37 228.03 600.98 261.2 623.18 261.07 623.58"/>
        <polygon class="cls-15" points="263.75 623.58 230.59 601.37 230.71 600.98 263.88 623.18 263.75 623.58"/>
        <polygon class="cls-15" points="266.43 623.58 233.27 601.37 233.39 600.98 266.56 623.18 266.43 623.58"/>
        <polygon class="cls-15" points="269.11 623.58 235.95 601.37 236.07 600.98 269.24 623.18 269.11 623.58"/>
        <polygon class="cls-15" points="271.79 623.58 238.62 601.37 238.75 600.98 271.92 623.18 271.79 623.58"/>
        <polygon class="cls-15" points="274.47 623.58 241.31 601.37 241.43 600.98 274.6 623.18 274.47 623.58"/>
        <polygon class="cls-15" points="277.15 623.58 243.99 601.37 244.11 600.98 277.28 623.18 277.15 623.58"/>
        <polygon class="cls-15" points="279.83 623.58 246.67 601.37 246.79 600.98 279.96 623.18 279.83 623.58"/>
        <polygon class="cls-15" points="282.51 623.58 249.35 601.37 249.47 600.98 282.64 623.18 282.51 623.58"/>
        <polygon class="cls-15" points="285.19 623.58 252.03 601.37 252.15 600.98 285.32 623.18 285.19 623.58"/>
        <polygon class="cls-15" points="287.87 623.58 254.71 601.37 254.83 600.98 288 623.18 287.87 623.58"/>
        <polygon class="cls-15" points="290.55 623.58 257.39 601.37 257.51 600.98 290.68 623.18 290.55 623.58"/>
        <polygon class="cls-15" points="293.23 623.58 260.07 601.37 260.19 600.98 293.36 623.18 293.23 623.58"/>
        <polygon class="cls-15" points="295.91 623.58 262.75 601.37 262.87 600.98 296.04 623.18 295.91 623.58"/>
      </g>
      <path class="cls-35" d="M140.28,618.1h-44.8c-1.99,0-3.61-2.03-3.61-4.54s1.62-4.53,3.61-4.53h44.8v9.07Z"/>
      <g class="cls-86">
        <polygon class="cls-15" points="84.19 607.36 51.03 585.15 51.16 584.76 84.32 606.96 84.19 607.36"/>
        <polygon class="cls-15" points="86.87 607.36 53.71 585.15 53.84 584.76 87 606.96 86.87 607.36"/>
        <polygon class="cls-15" points="89.55 607.36 56.39 585.15 56.52 584.76 89.68 606.96 89.55 607.36"/>
        <polygon class="cls-15" points="92.23 607.36 59.07 585.15 59.2 584.76 92.36 606.96 92.23 607.36"/>
        <polygon class="cls-15" points="94.91 607.36 61.75 585.15 61.88 584.76 95.04 606.96 94.91 607.36"/>
        <polygon class="cls-15" points="97.59 607.36 64.43 585.15 64.56 584.76 97.72 606.96 97.59 607.36"/>
        <polygon class="cls-15" points="100.27 607.36 67.11 585.15 67.24 584.76 100.4 606.96 100.27 607.36"/>
        <polygon class="cls-15" points="102.95 607.36 69.79 585.15 69.92 584.76 103.08 606.96 102.95 607.36"/>
        <polygon class="cls-15" points="105.63 607.36 72.47 585.15 72.6 584.76 105.76 606.96 105.63 607.36"/>
        <polygon class="cls-15" points="108.31 607.36 75.15 585.15 75.28 584.76 108.44 606.96 108.31 607.36"/>
        <polygon class="cls-15" points="110.99 607.36 77.83 585.15 77.96 584.76 111.12 606.96 110.99 607.36"/>
        <polygon class="cls-15" points="113.67 607.36 80.51 585.15 80.64 584.76 113.8 606.96 113.67 607.36"/>
        <polygon class="cls-15" points="116.35 607.36 83.19 585.15 83.32 584.76 116.48 606.96 116.35 607.36"/>
        <polygon class="cls-15" points="119.03 607.36 85.87 585.15 86 584.76 119.16 606.96 119.03 607.36"/>
        <polygon class="cls-15" points="121.71 607.36 88.55 585.15 88.68 584.76 121.84 606.96 121.71 607.36"/>
        <polygon class="cls-15" points="124.39 607.36 91.23 585.15 91.36 584.76 124.52 606.96 124.39 607.36"/>
        <polygon class="cls-15" points="127.07 607.36 93.91 585.15 94.04 584.76 127.2 606.96 127.07 607.36"/>
        <polygon class="cls-15" points="129.75 607.36 96.59 585.15 96.72 584.76 129.88 606.96 129.75 607.36"/>
        <polygon class="cls-15" points="132.43 607.36 99.27 585.15 99.4 584.76 132.56 606.96 132.43 607.36"/>
        <polygon class="cls-15" points="135.11 607.36 101.95 585.15 102.08 584.76 135.24 606.96 135.11 607.36"/>
        <polygon class="cls-15" points="137.79 607.36 104.63 585.15 104.76 584.76 137.92 606.96 137.79 607.36"/>
        <polygon class="cls-15" points="140.47 607.36 107.31 585.15 107.44 584.76 140.6 606.96 140.47 607.36"/>
        <polygon class="cls-15" points="143.15 607.36 109.99 585.15 110.12 584.76 143.28 606.96 143.15 607.36"/>
        <polygon class="cls-15" points="145.83 607.36 112.67 585.15 112.8 584.76 145.96 606.96 145.83 607.36"/>
        <polygon class="cls-15" points="148.51 607.36 115.35 585.15 115.48 584.76 148.64 606.96 148.51 607.36"/>
        <polygon class="cls-15" points="151.19 607.36 118.03 585.15 118.16 584.76 151.32 606.96 151.19 607.36"/>
        <polygon class="cls-15" points="153.87 607.36 120.71 585.15 120.84 584.76 154 606.96 153.87 607.36"/>
        <polygon class="cls-15" points="156.55 607.36 123.39 585.15 123.52 584.76 156.68 606.96 156.55 607.36"/>
        <polygon class="cls-15" points="159.23 607.36 126.07 585.15 126.2 584.76 159.36 606.96 159.23 607.36"/>
        <polygon class="cls-15" points="161.91 607.36 128.75 585.15 128.88 584.76 162.04 606.96 161.91 607.36"/>
        <polygon class="cls-15" points="164.59 607.36 131.43 585.15 131.56 584.76 164.72 606.96 164.59 607.36"/>
        <polygon class="cls-15" points="167.27 607.36 134.11 585.15 134.24 584.76 167.4 606.96 167.27 607.36"/>
        <polygon class="cls-15" points="169.95 607.36 136.79 585.15 136.92 584.76 170.08 606.96 169.95 607.36"/>
        <polygon class="cls-15" points="172.63 607.36 139.47 585.15 139.6 584.76 172.76 606.96 172.63 607.36"/>
        <polygon class="cls-15" points="175.31 607.36 142.15 585.15 142.28 584.76 175.44 606.96 175.31 607.36"/>
        <polygon class="cls-15" points="177.99 607.36 144.83 585.15 144.96 584.76 178.12 606.96 177.99 607.36"/>
        <polygon class="cls-15" points="180.67 607.36 147.51 585.15 147.64 584.76 180.8 606.96 180.67 607.36"/>
        <polygon class="cls-15" points="183.35 607.36 150.19 585.15 150.32 584.76 183.48 606.96 183.35 607.36"/>
        <polygon class="cls-15" points="186.03 607.36 152.87 585.15 153 584.76 186.16 606.96 186.03 607.36"/>
        <polygon class="cls-15" points="188.71 607.36 155.55 585.15 155.68 584.76 188.84 606.96 188.71 607.36"/>
        <polygon class="cls-15" points="191.39 607.36 158.23 585.15 158.36 584.76 191.52 606.96 191.39 607.36"/>
        <polygon class="cls-15" points="194.07 607.36 160.91 585.15 161.04 584.76 194.2 606.96 194.07 607.36"/>
        <polygon class="cls-15" points="196.75 607.36 163.59 585.15 163.72 584.76 196.88 606.96 196.75 607.36"/>
        <polygon class="cls-15" points="199.43 607.36 166.27 585.15 166.4 584.76 199.56 606.96 199.43 607.36"/>
        <polygon class="cls-15" points="202.11 607.36 168.95 585.15 169.08 584.76 202.24 606.96 202.11 607.36"/>
        <polygon class="cls-15" points="204.79 607.36 171.63 585.15 171.76 584.76 204.92 606.96 204.79 607.36"/>
        <polygon class="cls-15" points="207.47 607.36 174.31 585.15 174.44 584.76 207.6 606.96 207.47 607.36"/>
        <polygon class="cls-15" points="210.15 607.36 176.99 585.15 177.12 584.76 210.28 606.96 210.15 607.36"/>
        <polygon class="cls-15" points="212.83 607.36 179.67 585.15 179.8 584.76 212.96 606.96 212.83 607.36"/>
        <polygon class="cls-15" points="215.51 607.36 182.35 585.15 182.48 584.76 215.64 606.96 215.51 607.36"/>
        <polygon class="cls-15" points="218.19 607.36 185.03 585.15 185.16 584.76 218.32 606.96 218.19 607.36"/>
        <polygon class="cls-15" points="220.87 607.36 187.71 585.15 187.84 584.76 221 606.96 220.87 607.36"/>
        <polygon class="cls-15" points="223.55 607.36 190.39 585.15 190.52 584.76 223.68 606.96 223.55 607.36"/>
        <polygon class="cls-15" points="226.23 607.36 193.07 585.15 193.2 584.76 226.36 606.96 226.23 607.36"/>
        <polygon class="cls-15" points="228.91 607.36 195.75 585.15 195.88 584.76 229.04 606.96 228.91 607.36"/>
        <polygon class="cls-15" points="231.59 607.36 198.43 585.15 198.56 584.76 231.72 606.96 231.59 607.36"/>
        <polygon class="cls-15" points="234.27 607.36 201.11 585.15 201.24 584.76 234.4 606.96 234.27 607.36"/>
        <polygon class="cls-15" points="236.95 607.36 203.79 585.15 203.92 584.76 237.08 606.96 236.95 607.36"/>
        <polygon class="cls-15" points="239.63 607.36 206.47 585.15 206.6 584.76 239.76 606.96 239.63 607.36"/>
        <polygon class="cls-15" points="242.31 607.36 209.15 585.15 209.28 584.76 242.44 606.96 242.31 607.36"/>
        <polygon class="cls-15" points="244.99 607.36 211.83 585.15 211.96 584.76 245.12 606.96 244.99 607.36"/>
        <polygon class="cls-15" points="247.67 607.36 214.51 585.15 214.64 584.76 247.8 606.96 247.67 607.36"/>
        <polygon class="cls-15" points="250.35 607.36 217.19 585.15 217.32 584.76 250.48 606.96 250.35 607.36"/>
        <polygon class="cls-15" points="253.03 607.36 219.87 585.15 220 584.76 253.16 606.96 253.03 607.36"/>
        <polygon class="cls-15" points="255.71 607.36 222.55 585.15 222.67 584.76 255.84 606.96 255.71 607.36"/>
        <polygon class="cls-15" points="258.39 607.36 225.23 585.15 225.35 584.76 258.52 606.96 258.39 607.36"/>
        <polygon class="cls-15" points="261.07 607.36 227.91 585.15 228.03 584.76 261.2 606.96 261.07 607.36"/>
        <polygon class="cls-15" points="263.75 607.36 230.59 585.15 230.71 584.76 263.88 606.96 263.75 607.36"/>
        <polygon class="cls-15" points="266.43 607.36 233.27 585.15 233.39 584.76 266.56 606.96 266.43 607.36"/>
        <polygon class="cls-15" points="269.11 607.36 235.95 585.15 236.07 584.76 269.24 606.96 269.11 607.36"/>
        <polygon class="cls-15" points="271.79 607.36 238.62 585.15 238.75 584.76 271.92 606.96 271.79 607.36"/>
        <polygon class="cls-15" points="274.47 607.36 241.31 585.15 241.43 584.76 274.6 606.96 274.47 607.36"/>
        <polygon class="cls-15" points="277.15 607.36 243.99 585.15 244.11 584.76 277.28 606.96 277.15 607.36"/>
        <polygon class="cls-15" points="279.83 607.36 246.67 585.15 246.79 584.76 279.96 606.96 279.83 607.36"/>
        <polygon class="cls-15" points="282.51 607.36 249.35 585.15 249.47 584.76 282.64 606.96 282.51 607.36"/>
        <polygon class="cls-15" points="285.19 607.36 252.03 585.15 252.15 584.76 285.32 606.96 285.19 607.36"/>
        <polygon class="cls-15" points="287.87 607.36 254.71 585.15 254.83 584.76 288 606.96 287.87 607.36"/>
        <polygon class="cls-15" points="290.55 607.36 257.39 585.15 257.51 584.76 290.68 606.96 290.55 607.36"/>
        <polygon class="cls-15" points="293.23 607.36 260.07 585.15 260.19 584.76 293.36 606.96 293.23 607.36"/>
        <polygon class="cls-15" points="295.91 607.36 262.75 585.15 262.87 584.76 296.04 606.96 295.91 607.36"/>
      </g>
      <path class="cls-35" d="M134.17,601.88h-39.55c-1.52,0-2.76-2.03-2.76-4.54s1.24-4.53,2.76-4.53h39.55v9.07Z"/>
    </g>
    <g>
      <polygon class="cls-35" points="20.6 687.12 23.71 688.91 20.6 690.7 20.6 687.12"/>
      <polygon class="cls-35" points="20.6 700.62 23.71 702.41 20.6 704.2 20.6 700.62"/>
      <text class="cls-12" transform="translate(26.83 692.05)"><tspan x="0" y="0">Jazz in Marciac 2017-2018</tspan></text>
      <text class="cls-12" transform="translate(26.83 705.46)"><tspan x="0" y="0">Beauregard 2014-15-17</tspan></text>
      <line class="cls-48" x1="17.17" y1="678.88" x2="152.35" y2="678.88"/>
      <text class="cls-38" transform="translate(17.17 671.99)"><tspan class="cls-53" x="0" y="0">BE</tspan><tspan class="cls-71" x="21.84" y="0">N</tspan><tspan class="cls-53" x="33.9" y="0">EVO</tspan><tspan class="cls-71" x="72.13" y="0">LA</tspan><tspan class="cls-85" x="94.75" y="0">T</tspan></text>
    </g>
    <line class="cls-48" x1="17.17" y1="772.84" x2="152.36" y2="772.84"/>
    <text class="cls-40" transform="translate(17.17 765.62)"><tspan x="0" y="0">PORTFOLIO</tspan></text>
    <image width="240" height="240" transform="translate(58.05 779.29) scale(.15)" xlink:href="github-mark-c791e9551fe4/github-mark/github-mark.png"/>
  </g>
  <g id="droit">
    <line class="cls-49" x1="543.15" y1="82.89" x2="186.63" y2="82.89"/>
    <line class="cls-49" x1="271.72" y1="111.96" x2="271.72" y2="612.56"/>
    <g>
      <text class="cls-9" transform="translate(286.4 141.33)"><tspan x="0" y="0">Actugaming.net</tspan></text>
      <text class="cls-4" transform="translate(286.19 131.31)"><tspan x="0" y="0">Rédacteur web / Journaliste JV (freelance)</tspan></text>
      <polygon class="cls-15" points="244.63 136.05 185.97 136.05 185.97 120.07 244.63 120.07 259.27 128.06 244.63 136.05"/>
      <path class="cls-42" d="M251.68,127.53c0,1.35-1.1,2.45-2.45,2.45s-2.45-1.1-2.45-2.45,1.1-2.45,2.45-2.45,2.45,1.1,2.45,2.45"/>
      <path class="cls-15" d="M274.23,128.06c0,1.35-1.1,2.45-2.45,2.45s-2.45-1.1-2.45-2.45,1.1-2.45,2.45-2.45,2.45,1.1,2.45,2.45"/>
      <text class="cls-25" transform="translate(190.87 132.13)"><tspan x="0" y="0">2016- 2023</tspan></text>
      <text class="cls-10" transform="translate(286.19 152.99)"><tspan x="0" y="0">Relation presse, gestion d’équipe, rédaction de contenu, optimisation SEO,</tspan><tspan x="0" y="12">réseaux sociaux, écriture de script vidéo.</tspan></text>
    </g>
    <g>
      <text class="cls-9" transform="translate(286.4 195.79)"><tspan x="0" y="0">brasserie La goutte d’or</tspan></text>
      <text class="cls-4" transform="translate(286.19 185.76)"><tspan x="0" y="0">commercial / charge de marketing</tspan></text>
      <polygon class="cls-15" points="244.63 190.5 185.97 190.5 185.97 174.52 244.63 174.52 259.27 182.51 244.63 190.5"/>
      <path class="cls-42" d="M251.68,181.98c0,1.35-1.1,2.45-2.45,2.45s-2.45-1.1-2.45-2.45,1.1-2.45,2.45-2.45,2.45,1.1,2.45,2.45"/>
      <path class="cls-15" d="M274.23,182.51c0,1.35-1.1,2.45-2.45,2.45s-2.45-1.1-2.45-2.45,1.1-2.45,2.45-2.45,2.45,1.1,2.45,2.45"/>
      <text class="cls-25" transform="translate(190.87 186.59)"><tspan x="0" y="0">2022- 2022</tspan></text>
      <text class="cls-10" transform="translate(286.19 207.44) scale(.96 1)"><tspan x="0" y="0">Relation presse, rédaction de contenu, optimisation SEO, réseaux sociaux, </tspan><tspan x="0" y="12">montage, graphisme, emailing, démarchage, bartender, communication externe</tspan><tspan x="0" y="24">ressources humaines, composition musicale.</tspan></text>
    </g>
    <text class="cls-13" transform="translate(58.05 829.79)"><tspan x="0" y="0">AramirRp</tspan></text>
    <path class="cls-42" d="M251.68,572.02c0,1.35-1.1,2.45-2.45,2.45s-2.45-1.1-2.45-2.45,1.1-2.45,2.45-2.45,2.45,1.1,2.45,2.45"/>
    <path class="cls-15" d="M274.23,572.55c0,1.35-1.1,2.45-2.45,2.45s-2.45-1.1-2.45-2.45,1.1-2.45,2.45-2.45,2.45,1.1,2.45,2.45"/>
    <g>
      <text class="cls-11" transform="translate(285.4 598.83)"><tspan class="cls-17" x="0" y="0">Stage - 3 mois :</tspan><tspan class="cls-21" x="62.01" y="0" xml:space="preserve"> création contenu print, suivi d’évènements institutionnels, </tspan><tspan class="cls-20"><tspan x="0" y="12">photographie, community managment</tspan></tspan></text>
      <text class="cls-9" transform="translate(285.61 585.83)"><tspan x="0" y="0">Ambassade des Etats-Unis d’Amérique, Paris</tspan></text>
      <text class="cls-4" transform="translate(285.4 575.8)"><tspan x="0" y="0">Communication nouveaux médias</tspan></text>
      <polygon class="cls-15" points="244.63 580.54 185.97 580.54 185.97 564.56 244.63 564.56 259.27 572.55 244.63 580.54"/>
      <text class="cls-25" transform="translate(190.87 576.27)"><tspan x="0" y="0">2017-2017</tspan></text>
    </g>
    <text class="cls-36" transform="translate(186.63 101.92)"><tspan x="0" y="0">EXPERIENCE PROFESSIONNELLE</tspan></text>
    <g>
      <line class="cls-49" x1="554.15" y1="632.89" x2="197.63" y2="632.89"/>
      <text class="cls-39" transform="translate(197.63 650.92)"><tspan x="0" y="0">FORMATION</tspan></text>
    </g>
    <g>
      <line class="cls-49" x1="554.15" y1="729.01" x2="197.63" y2="729.01"/>
      <text class="cls-39" transform="translate(197.63 747.03)"><tspan x="0" y="0">COMPETENCES</tspan></text>
    </g>
    <g>
      <text class="cls-11" transform="translate(286.4 540.88)"><tspan class="cls-16" x="0" y="0">Stage - 3 mois :</tspan><tspan class="cls-29" x="62.77" y="0" xml:space="preserve"> mailing, </tspan><tspan class="cls-29" x="100.82" y="0">relations presse, community management,</tspan><tspan class="cls-29"><tspan x="0" y="12">stratégie de communication, rédaction web, media planning</tspan><tspan x="238.81" y="12"> </tspan></tspan></text>
      <text class="cls-9" transform="translate(286.4 525.88)"><tspan x="0" y="0">Agence de communication Les Petites Ficelles</tspan></text>
      <text class="cls-4" transform="translate(286.4 514.85)"><tspan x="0" y="0">Assistant chargé de communication</tspan></text>
      <polygon class="cls-15" points="244.35 517.58 185.97 517.58 185.97 501.61 244.35 501.61 258.93 509.59 244.35 517.58"/>
      <path class="cls-42" d="M251.33,509.07c0,1.35-1.1,2.45-2.45,2.45s-2.45-1.1-2.45-2.45,1.1-2.45,2.45-2.45,2.45,1.1,2.45,2.45"/>
      <path class="cls-15" d="M274.08,509.59c0,1.35-1.1,2.45-2.45,2.45s-2.45-1.1-2.45-2.45,1.1-2.45,2.45-2.45,2.45,1.1,2.45,2.45"/>
      <text class="cls-25" transform="translate(190.87 513.32)"><tspan x="0" y="0">2018-2018</tspan></text>
    </g>
    <g>
      <text class="cls-11" transform="translate(286.89 476.93)"><tspan class="cls-16" x="0" y="0">Stage - 2 mois :</tspan><tspan class="cls-29" x="62.77" y="0" xml:space="preserve"> Médiation </tspan><tspan class="cls-30" x="108.87" y="0">culturelle création contenu print, </tspan><tspan class="cls-29"><tspan x="0" y="12">partenariats, photo-journalisme </tspan><tspan x="127.46" y="12"> </tspan></tspan></text>
      <text class="cls-9" transform="translate(286.89 462.93)"><tspan x="0" y="0">Musiques d’Aujourd’hui / Musiques Démesurées</tspan></text>
      <text class="cls-4" transform="translate(286.89 452.9)"><tspan x="0" y="0">Assistant chargé de production</tspan></text>
      <polygon class="cls-15" points="244.74 455.63 185.97 455.63 185.97 439.65 244.74 439.65 259.41 447.64 244.74 455.63"/>
      <path class="cls-42" d="M251.82,447.12c0,1.35-1.1,2.45-2.45,2.45s-2.45-1.1-2.45-2.45,1.1-2.45,2.45-2.45,2.45,1.1,2.45,2.45"/>
      <path class="cls-15" d="M274.08,447.64c0,1.35-1.1,2.45-2.45,2.45s-2.45-1.1-2.45-2.45,1.1-2.45,2.45-2.45,2.45,1.1,2.45,2.45"/>
      <text class="cls-25" transform="translate(190.87 451.37)"><tspan x="0" y="0">2018-2018</tspan></text>
    </g>
    <g>
      <g>
        <text class="cls-11" transform="translate(286.89 418.97)"><tspan class="cls-16" x="0" y="0">Stage/CDD - 6 mois : </tspan><tspan class="cls-31" x="89.16" y="0">Gestion de projet, d’équipe, de budget, </tspan><tspan class="cls-29"><tspan x="0" y="12">programmation, partenariats, communication, graphisme, charte graphique.</tspan></tspan></text>
        <g>
          <text class="cls-1" transform="translate(397.44 401.98)"><tspan x="0" y="0">e</tspan></text>
          <text class="cls-9" transform="translate(403.62 406.61)"><tspan x="0" y="0" xml:space="preserve"> édition</tspan></text>
          <text class="cls-9" transform="translate(286.89 406.61)"><tspan x="0" y="0">Inra / Courts de Sciences 17</tspan></text>
        </g>
        <text class="cls-4" transform="translate(286.88 394.95)"><tspan x="0" y="0">Chargé de projet</tspan></text>
      </g>
      <polygon class="cls-15" points="244.74 397.68 185.97 397.68 185.97 381.7 244.74 381.7 259.41 389.69 244.74 397.68"/>
      <path class="cls-42" d="M251.82,389.16c0,1.35-1.1,2.45-2.45,2.45s-2.45-1.1-2.45-2.45,1.1-2.45,2.45-2.45,2.45,1.1,2.45,2.45"/>
      <path class="cls-15" d="M274.08,389.69c0,1.35-1.1,2.45-2.45,2.45s-2.45-1.1-2.45-2.45,1.1-2.45,2.45-2.45,2.45,1.1,2.45,2.45"/>
      <text class="cls-25" transform="translate(190.87 393.41)"><tspan x="0" y="0">2019-2019</tspan></text>
    </g>
    <g>
      <text class="cls-11" transform="translate(286.89 347.52)"><tspan class="cls-16" x="0" y="0">CDD/Alternance - 12 mois : </tspan><tspan class="cls-29" x="115.82" y="0">Responsable du marché “secteur public”, </tspan><tspan class="cls-29"><tspan x="0" y="12">graphisme print et web, emailing, SEO, SEA, montage vidéo, </tspan></tspan><tspan class="cls-29"><tspan x="0" y="24">commercialisation de formation et évènements.</tspan></tspan></text>
      <text class="cls-4" transform="translate(286.88 322.49)"><tspan x="0" y="0">Chargé de marketing opérationnel</tspan></text>
      <text class="cls-9" transform="translate(286.37 334.49)"><tspan x="0" y="0">Comundi</tspan></text>
      <polygon class="cls-15" points="244.74 326.22 185.97 326.22 185.97 310.25 244.74 310.25 259.41 318.24 244.74 326.22"/>
      <path class="cls-42" d="M251.82,317.71c0,1.35-1.1,2.45-2.45,2.45s-2.45-1.1-2.45-2.45,1.1-2.45,2.45-2.45,2.45,1.1,2.45,2.45"/>
      <path class="cls-15" d="M274.08,318.24c0,1.35-1.1,2.45-2.45,2.45s-2.45-1.1-2.45-2.45,1.1-2.45,2.45-2.45,2.45,1.1,2.45,2.45"/>
      <text class="cls-25" transform="translate(190.87 321.96)"><tspan x="0" y="0">2020-2021</tspan></text>
    </g>
    <g>
      <text class="cls-11" transform="translate(286.89 277.57)"><tspan class="cls-16" x="0" y="0">CDI :</tspan><tspan class="cls-29" x="23.05" y="0" xml:space="preserve"> Stratégie de communication, community management, photographie,</tspan><tspan class="cls-29"><tspan x="0" y="12">captation vidéo, booking, admninistration, rédaction web, SEO, SEA, </tspan></tspan><tspan class="cls-29"><tspan x="0" y="24">graphisme, secrétariat, partenariats, mécénat.</tspan></tspan></text>
      <text class="cls-9" transform="translate(286.62 264.19)"><tspan x="0" y="0">CMDL - Centre des musiques Didier Lockwood</tspan></text>
      <text class="cls-4" transform="translate(286.88 252.54)"><tspan x="0" y="0">Chargé de communication et de développement</tspan></text>
      <polygon class="cls-15" points="244.74 255.27 185.97 255.27 185.97 239.3 244.74 239.3 259.41 247.28 244.74 255.27"/>
      <path class="cls-42" d="M251.82,246.76c0,1.35-1.1,2.45-2.45,2.45s-2.45-1.1-2.45-2.45,1.1-2.45,2.45-2.45,2.45,1.1,2.45,2.45"/>
      <path class="cls-15" d="M274.08,247.28c0,1.35-1.1,2.45-2.45,2.45s-2.45-1.1-2.45-2.45,1.1-2.45,2.45-2.45,2.45,1.1,2.45,2.45"/>
      <text class="cls-25" transform="translate(190.87 251.01)"><tspan x="0" y="0">2021-2022</tspan></text>
    </g>
    <text class="cls-7" transform="translate(226.65 801.75)"><tspan x="0" y="0">HTMl</tspan></text>
    <text class="cls-32" transform="translate(226.65 829.79)"><tspan class="cls-77" x="0" y="0">C</tspan><tspan class="cls-87" x="19.07" y="0">SS/S</tspan><tspan class="cls-90" x="84.39" y="0">C</tspan><tspan class="cls-95" x="103.46" y="0">SS</tspan></text>
    <text class="cls-26" transform="translate(545.73 831.9)"><tspan x="0" y="0">JS</tspan></text>
    <text class="cls-24" transform="translate(292.44 802.46) scale(1.15 1)"><tspan x="0" y="0">REACT</tspan></text>
    <g>
      <text class="cls-10" transform="translate(214.18 706.5)"><tspan x="0" y="0">2023-2024</tspan></text>
      <text class="cls-3" transform="translate(214.18 694.5)"><tspan x="0" y="0">ADA Tech School - Paris</tspan></text>
      <text class="cls-5" transform="translate(215.98 674.05)"><tspan x="0" y="0">Développeur fullstack</tspan></text>
      <line class="cls-49" x1="213.93" y1="680.03" x2="373.87" y2="680.03"/>
    </g>
    <g>
      <polygon class="cls-33" points="373.42 785.97 377.02 785.97 378.63 797.46 378.67 797.46 380.28 785.97 383.88 785.97 383.88 802.03 381.5 802.03 381.5 789.87 381.45 789.87 379.62 802.03 377.5 802.03 375.67 789.87 375.62 789.87 375.62 802.03 373.42 802.03 373.42 785.97"/>
      <path class="cls-33" d="M386.27,801.22c-.63-.7-.94-1.7-.94-3v-.92h2.39v1.1c0,1.04.44,1.56,1.31,1.56.43,0,.75-.13.97-.38.22-.25.33-.66.33-1.23,0-.67-.15-1.27-.46-1.78-.31-.52-.87-1.13-1.7-1.85-1.04-.92-1.77-1.75-2.18-2.49-.41-.74-.62-1.58-.62-2.51,0-1.27.32-2.25.96-2.95.64-.7,1.58-1.05,2.8-1.05s2.12.35,2.74,1.05c.62.69.93,1.69.93,2.99v.67h-2.39v-.83c0-.55-.11-.95-.32-1.21-.22-.25-.53-.38-.94-.38-.84,0-1.26.51-1.26,1.54,0,.58.16,1.12.47,1.63.31.5.89,1.12,1.71,1.84,1.06.92,1.78,1.75,2.18,2.5.4.75.6,1.63.6,2.64,0,1.31-.32,2.32-.97,3.03-.65.71-1.6,1.06-2.84,1.06s-2.15-.35-2.78-1.04"/>
      <path class="cls-33" d="M398.78,801.2c-.66-.71-.99-1.7-.99-2.99v-8.44c0-1.29.33-2.28.99-2.98.66-.7,1.61-1.05,2.85-1.05s2.19.35,2.84,1.05c.66.71.99,1.7.99,2.98v8.44c0,1.28-.33,2.28-.99,2.99-.66.7-1.61,1.05-2.84,1.05s-2.19-.35-2.85-1.05M402.93,798.38v-8.77c0-1.05-.43-1.58-1.31-1.58s-1.31.53-1.31,1.58v8.77c0,1.05.44,1.58,1.31,1.58s1.31-.53,1.31-1.58"/>
      <polygon class="cls-33" points="407.15 785.97 413.83 785.97 413.83 788.26 409.68 788.26 409.68 792.73 412.94 792.73 412.94 795.03 409.68 795.03 409.68 802.03 407.15 802.03 407.15 785.97"/>
      <polygon class="cls-33" points="415.05 785.97 421.73 785.97 421.73 788.26 417.57 788.26 417.57 792.73 420.83 792.73 420.83 795.03 417.57 795.03 417.57 802.03 415.05 802.03 415.05 785.97"/>
      <rect class="cls-33" x="422.94" y="785.96" width="2.52" height="16.07"/>
      <path class="cls-33" d="M428.14,801.23c-.63-.69-.95-1.66-.95-2.92v-8.63c0-1.26.32-2.23.95-2.92.64-.69,1.56-1.03,2.76-1.03s2.13.34,2.77,1.03c.63.69.95,1.66.95,2.92v1.7h-2.39v-1.86c0-.99-.42-1.49-1.26-1.49s-1.26.5-1.26,1.49v8.97c0,.98.42,1.47,1.26,1.47s1.26-.49,1.26-1.47v-2.46h2.39v2.27c0,1.26-.32,2.23-.95,2.92-.64.69-1.56,1.03-2.77,1.03s-2.13-.34-2.76-1.03"/>
      <polygon class="cls-33" points="436.14 785.97 443.02 785.97 443.02 788.26 438.66 788.26 438.66 792.5 442.13 792.5 442.13 794.8 438.66 794.8 438.66 799.73 443.02 799.73 443.02 802.03 436.14 802.03 436.14 785.97"/>
    </g>
    <g>
      <path class="cls-15" d="M227.28,771.22c-.42-.45-.63-1.09-.63-1.92v-5.69c0-.83.21-1.47.63-1.92.42-.45,1.03-.68,1.82-.68s1.41.23,1.82.68c.42.45.63,1.09.63,1.92v1.12h-1.57v-1.23c0-.66-.28-.98-.83-.98s-.83.33-.83.98v5.92c0,.65.28.97.83.97s.83-.32.83-.97v-1.62h1.57v1.5c0,.83-.21,1.47-.63,1.92-.42.45-1.03.68-1.82.68s-1.41-.23-1.82-.68"/>
      <path class="cls-15" d="M233.08,771.2c-.43-.46-.65-1.12-.65-1.97v-5.57c0-.85.22-1.5.65-1.97.43-.46,1.06-.7,1.88-.7s1.44.23,1.88.7c.43.46.65,1.12.65,1.97v5.57c0,.85-.22,1.5-.65,1.97-.43.46-1.06.7-1.88.7s-1.44-.23-1.88-.7M235.82,769.34v-5.78c0-.7-.29-1.04-.86-1.04s-.86.35-.86,1.04v5.78c0,.7.29,1.04.86,1.04s.86-.35.86-1.04"/>
      <polygon class="cls-15" points="238.61 761.15 240.98 761.15 242.04 768.73 242.07 768.73 243.13 761.15 245.51 761.15 245.51 771.75 243.93 771.75 243.93 763.72 243.9 763.72 242.69 771.75 241.3 771.75 240.09 763.72 240.06 763.72 240.06 771.75 238.61 771.75 238.61 761.15"/>
      <polygon class="cls-15" points="246.75 761.15 249.12 761.15 250.18 768.73 250.21 768.73 251.27 761.15 253.65 761.15 253.65 771.75 252.08 771.75 252.08 763.72 252.05 763.72 250.83 771.75 249.44 771.75 248.23 763.72 248.2 763.72 248.2 771.75 246.75 771.75 246.75 761.15"/>
      <path class="cls-15" d="M255.47,771.21c-.42-.46-.64-1.12-.64-1.98v-8.08h1.67v8.2c0,.36.07.62.22.79.15.16.36.24.63.24s.48-.08.63-.24c.15-.16.22-.42.22-.79v-8.2h1.6v8.08c0,.86-.21,1.52-.64,1.98-.42.46-1.04.69-1.85.69s-1.42-.23-1.85-.69"/>
      <polygon class="cls-15" points="260.98 761.15 263.06 761.15 264.68 767.49 264.72 767.49 264.72 761.15 266.2 761.15 266.2 771.75 264.49 771.75 262.49 764.01 262.46 764.01 262.46 771.75 260.98 771.75 260.98 761.15"/>
      <rect class="cls-15" x="267.44" y="761.15" width="1.66" height="10.6"/>
      <path class="cls-15" d="M270.87,771.22c-.42-.45-.63-1.09-.63-1.92v-5.69c0-.83.21-1.47.63-1.92.42-.45,1.03-.68,1.82-.68s1.41.23,1.82.68c.42.45.63,1.09.63,1.92v1.12h-1.57v-1.23c0-.66-.28-.98-.83-.98s-.83.33-.83.98v5.92c0,.65.28.97.83.97s.83-.32.83-.97v-1.62h1.57v1.5c0,.83-.21,1.47-.63,1.92-.42.45-1.03.68-1.82.68s-1.41-.23-1.82-.68"/>
      <path class="cls-15" d="M277.43,761.15h2.25l1.72,10.6h-1.66l-.3-2.1v.03h-1.89l-.3,2.07h-1.54l1.73-10.6ZM279.25,768.23l-.74-5.24h-.03l-.73,5.24h1.5Z"/>
      <polygon class="cls-15" points="282.92 762.66 281.18 762.66 281.18 761.15 286.33 761.15 286.33 762.66 284.59 762.66 284.59 771.75 282.92 771.75 282.92 762.66"/>
      <rect class="cls-15" x="287.13" y="761.15" width="1.66" height="10.6"/>
      <path class="cls-15" d="M290.57,771.2c-.43-.46-.65-1.12-.65-1.97v-5.57c0-.85.22-1.5.65-1.97.43-.46,1.06-.7,1.88-.7s1.44.23,1.88.7c.43.46.65,1.12.65,1.97v5.57c0,.85-.22,1.5-.65,1.97-.43.46-1.06.7-1.88.7s-1.44-.23-1.88-.7M293.31,769.34v-5.78c0-.7-.29-1.04-.86-1.04s-.86.35-.86,1.04v5.78c0,.7.29,1.04.86,1.04s.86-.35.86-1.04"/>
      <polygon class="cls-15" points="296.09 761.15 298.18 761.15 299.8 767.49 299.83 767.49 299.83 761.15 301.31 761.15 301.31 771.75 299.6 771.75 297.61 764.01 297.57 764.01 297.57 771.75 296.09 771.75 296.09 761.15"/>
    </g>
    <g>
      <path class="cls-44" d="M499.73,772.84c-.56-.61-.84-1.47-.84-2.58v-7.64c0-1.11.28-1.97.84-2.58.56-.61,1.38-.91,2.45-.91s1.89.3,2.45.91c.56.61.84,1.47.84,2.58v1.5h-2.11v-1.64c0-.88-.37-1.32-1.12-1.32s-1.12.44-1.12,1.32v7.94c0,.87.37,1.3,1.12,1.3s1.12-.43,1.12-1.3v-2.17h2.11v2.01c0,1.11-.28,1.97-.84,2.58-.56.61-1.38.91-2.45.91s-1.89-.3-2.45-.91"/>
      <path class="cls-44" d="M506.81,759.34h3.31c1.15,0,1.99.27,2.52.8.53.53.79,1.36.79,2.47v.87c0,1.48-.49,2.41-1.46,2.8v.04c.54.16.92.49,1.15,1,.22.5.34,1.17.34,2.01v2.5c0,.41.01.74.04.99.03.25.1.5.2.74h-2.27c-.08-.23-.14-.45-.16-.65-.03-.2-.04-.57-.04-1.1v-2.6c0-.65-.1-1.1-.31-1.36-.21-.26-.57-.39-1.09-.39h-.77v6.09h-2.23v-14.22ZM509.85,765.43c.45,0,.78-.11,1.01-.34.22-.23.33-.62.33-1.16v-1.1c0-.51-.09-.89-.27-1.12-.18-.23-.47-.34-.86-.34h-1.02v4.06h.81Z"/>
      <polygon class="cls-44" points="514.99 759.34 521.08 759.34 521.08 761.37 517.22 761.37 517.22 765.13 520.29 765.13 520.29 767.16 517.22 767.16 517.22 771.53 521.08 771.53 521.08 773.56 514.99 773.56 514.99 759.34"/>
      <path class="cls-44" d="M524.09,759.34h3.03l2.32,14.22h-2.23l-.41-2.82v.04h-2.54l-.41,2.78h-2.07l2.32-14.22ZM526.53,768.84l-.99-7.03h-.04l-.97,7.03h2.01Z"/>
      <polygon class="cls-44" points="531.46 761.37 529.12 761.37 529.12 759.34 536.03 759.34 536.03 761.37 533.69 761.37 533.69 773.56 531.46 773.56 531.46 761.37"/>
      <rect class="cls-44" x="537.11" y="759.34" width="2.23" height="14.22"/>
      <polygon class="cls-44" points="540.42 759.34 542.67 759.34 544.13 770.37 544.17 770.37 545.64 759.34 547.69 759.34 545.53 773.56 542.57 773.56 540.42 759.34"/>
      <rect class="cls-44" x="548.76" y="759.34" width="2.23" height="14.22"/>
      <polygon class="cls-44" points="554.41 761.37 552.07 761.37 552.07 759.34 558.98 759.34 558.98 761.37 556.64 761.37 556.64 773.56 554.41 773.56 554.41 761.37"/>
      <polygon class="cls-44" points="560.05 759.34 566.15 759.34 566.15 761.37 562.29 761.37 562.29 765.13 565.35 765.13 565.35 767.16 562.29 767.16 562.29 771.53 566.15 771.53 566.15 773.56 560.05 773.56 560.05 759.34"/>
    </g>
    <g>
      <polygon class="cls-15" points="452.05 787.17 449.22 787.17 449.22 784.71 457.58 784.71 457.58 787.17 454.75 787.17 454.75 801.93 452.05 801.93 452.05 787.17"/>
      <path class="cls-15" d="M458.89,784.71h4.01c1.4,0,2.41.32,3.05.97.64.65.96,1.64.96,2.99v1.06c0,1.79-.59,2.92-1.77,3.4v.05c.66.2,1.12.6,1.39,1.21.27.61.41,1.42.41,2.43v3.03c0,.49.01.89.05,1.19.03.3.11.6.25.9h-2.76c-.1-.28-.16-.54-.2-.79-.03-.25-.05-.69-.05-1.33v-3.15c0-.79-.13-1.34-.38-1.65-.25-.31-.69-.47-1.32-.47h-.93v7.38h-2.71v-17.22ZM462.58,792.09c.54,0,.95-.14,1.22-.42.27-.28.41-.75.41-1.4v-1.33c0-.62-.11-1.07-.33-1.35-.22-.28-.57-.42-1.05-.42h-1.23v4.92h.98Z"/>
      <path class="cls-15" d="M470.89,784.71h3.66l2.8,17.22h-2.71l-.49-3.42v.05h-3.08l-.49,3.37h-2.51l2.81-17.22ZM473.84,796.22l-1.21-8.51h-.05l-1.18,8.51h2.44Z"/>
      <polygon class="cls-15" points="477.95 784.71 480.68 784.71 482.45 798.07 482.5 798.07 484.27 784.71 486.76 784.71 484.15 801.93 480.56 801.93 477.95 784.71"/>
      <path class="cls-15" d="M490.15,784.71h3.67l2.8,17.22h-2.71l-.49-3.42v.05h-3.08l-.49,3.37h-2.51l2.81-17.22ZM493.11,796.22l-1.21-8.51h-.05l-1.18,8.51h2.44Z"/>
      <rect class="cls-15" x="497.92" y="784.71" width="2.71" height="17.22"/>
      <polygon class="cls-15" points="502.65 784.71 505.35 784.71 505.35 799.47 509.81 799.47 509.81 801.93 502.65 801.93 502.65 784.71"/>
      <polygon class="cls-15" points="515.05 784.71 522.43 784.71 522.43 787.17 517.75 787.17 517.75 791.72 521.47 791.72 521.47 794.18 517.75 794.18 517.75 799.47 522.43 799.47 522.43 801.93 515.05 801.93 515.05 784.71"/>
      <path class="cls-15" d="M529.69,801.88c-.51.19-1.11.29-1.8.29-1.33,0-2.35-.38-3.05-1.13-.7-.75-1.06-1.82-1.06-3.2v-9.05c0-1.38.35-2.44,1.06-3.2.7-.76,1.72-1.13,3.05-1.13s2.34.38,3.05,1.13c.71.75,1.06,1.82,1.06,3.2v9.05c0,1.15-.25,2.09-.76,2.83.1.16.22.27.37.32.15.05.36.07.64.07h.42v2.46h-.71c-1.23,0-1.99-.55-2.26-1.65M529.29,798.02v-9.4c0-1.13-.47-1.7-1.4-1.7s-1.4.57-1.4,1.7v9.4c0,1.13.47,1.7,1.4,1.7s1.4-.57,1.4-1.7"/>
      <path class="cls-15" d="M534.75,801.06c-.69-.75-1.03-1.82-1.03-3.21v-13.14h2.71v13.33c0,.59.12,1.02.36,1.28.24.26.58.39,1.02.39s.78-.13,1.02-.39c.24-.26.36-.69.36-1.28v-13.33h2.61v13.14c0,1.4-.35,2.46-1.03,3.21-.69.75-1.69,1.12-3,1.12s-2.31-.37-3-1.12"/>
      <rect class="cls-15" x="543.71" y="784.71" width="2.71" height="17.22"/>
      <path class="cls-15" d="M548.43,784.71h3.98c1.35,0,2.35.36,3.03,1.08.67.72,1.01,1.78,1.01,3.17v1.7c0,1.39-.34,2.45-1.01,3.17-.67.72-1.68,1.08-3.03,1.08h-1.28v7.01h-2.71v-17.22ZM552.42,792.46c.44,0,.77-.12,1-.37.22-.25.33-.66.33-1.25v-2.04c0-.59-.11-1.01-.33-1.26-.22-.25-.55-.37-1-.37h-1.28v5.29h1.28Z"/>
      <polygon class="cls-15" points="557.93 784.71 565.31 784.71 565.31 787.17 560.63 787.17 560.63 791.72 564.35 791.72 564.35 794.18 560.63 794.18 560.63 799.47 565.31 799.47 565.31 801.93 557.93 801.93 557.93 784.71"/>
    </g>
    <g>
      <path class="cls-15" d="M448.61,770.41c-.5.18-1.5.48-2.67.48-1.32,0-2.4-.34-3.25-1.15-.75-.72-1.21-1.88-1.21-3.24.01-2.59,1.79-4.49,4.71-4.49,1.01,0,1.79.22,2.17.4l-.27.92c-.46-.21-1.05-.37-1.92-.37-2.12,0-3.5,1.32-3.5,3.5s1.33,3.51,3.36,3.51c.74,0,1.24-.1,1.5-.23v-2.59h-1.77v-.9h2.87v4.18Z"/>
      <polygon class="cls-15" points="454.84 766.72 451.46 766.72 451.46 769.86 455.23 769.86 455.23 770.8 450.33 770.8 450.33 762.1 455.03 762.1 455.03 763.04 451.46 763.04 451.46 765.79 454.84 765.79 454.84 766.72"/>
      <path class="cls-15" d="M456.53,769.43c.5.31,1.24.57,2.01.57,1.15,0,1.82-.61,1.82-1.48,0-.81-.46-1.28-1.64-1.73-1.42-.5-2.3-1.24-2.3-2.47,0-1.35,1.12-2.36,2.82-2.36.89,0,1.53.21,1.92.43l-.31.92c-.28-.15-.87-.41-1.65-.41-1.19,0-1.64.71-1.64,1.3,0,.81.53,1.21,1.73,1.68,1.47.57,2.22,1.28,2.22,2.56,0,1.34-.99,2.5-3.05,2.5-.84,0-1.76-.25-2.22-.56l.28-.94Z"/>
      <polygon class="cls-15" points="464.71 763.05 462.06 763.05 462.06 762.1 468.5 762.1 468.5 763.05 465.84 763.05 465.84 770.8 464.71 770.8 464.71 763.05"/>
      <rect class="cls-15" x="469.47" y="762.1" width="1.12" height="8.7"/>
      <path class="cls-15" d="M479.99,766.36c0,2.99-1.82,4.58-4.04,4.58s-3.91-1.78-3.91-4.41c0-2.76,1.72-4.57,4.04-4.57s3.91,1.82,3.91,4.4M473.24,766.5c0,1.86,1.01,3.52,2.77,3.52s2.79-1.64,2.79-3.61c0-1.73-.9-3.54-2.77-3.54s-2.79,1.72-2.79,3.63"/>
      <path class="cls-15" d="M481.46,770.8v-8.7h1.23l2.79,4.4c.65,1.02,1.15,1.94,1.56,2.83h.03c-.1-1.18-.13-2.23-.13-3.59v-3.64h1.06v8.7h-1.14l-2.76-4.41c-.61-.97-1.19-1.96-1.63-2.9h-.04c.07,1.11.09,2.15.09,3.6v3.72h-1.06Z"/>
    </g>
    <g>
      <polygon class="cls-15" points="334.47 760.66 334.47 772.24 331.23 772.24 331.23 764.18 328.97 772.24 327.1 772.24 324.78 764.32 324.78 772.24 323.65 772.24 323.65 760.66 327.06 760.66 329.05 767.65 331.02 760.66 334.47 760.66"/>
      <path class="cls-15" d="M341.73,760.66l3.22,11.58h-3.37l-.69-2.51h-3.48l-.74,2.51h-1.31l3.43-11.58h2.95ZM337.73,768.56h2.84l-1.37-5.13-1.47,5.13Z"/>
      <polygon class="cls-15" points="354.32 760.66 354.32 772.24 351.75 772.24 346.91 764.91 346.91 772.24 345.79 772.24 345.79 760.66 347.92 760.66 353.19 768.57 353.19 760.66 354.32 760.66"/>
      <path class="cls-15" d="M361.51,760.66l3.22,11.58h-3.38l-.69-2.51h-3.48l-.74,2.51h-1.31l3.43-11.58h2.95ZM357.52,768.56h2.84l-1.37-5.13-1.47,5.13Z"/>
      <path class="cls-15" d="M370.17,765.99h4.77v6.25h-1.07l-.37-.8c-.93.66-1.92.99-2.96.99-1.71,0-3.04-.51-3.99-1.54-.95-1.02-1.42-2.47-1.42-4.34s.5-3.28,1.51-4.41c1-1.12,2.32-1.68,3.94-1.68,2.14,0,3.44,1.09,3.9,3.27l-1.58.72v-.28l-.03-.63c-.11-1.36-.74-2.04-1.89-2.04-.85,0-1.43.36-1.74,1.08-.31.72-.47,2.07-.47,4.05,0,1.84.12,3.1.38,3.76.25.66.73.99,1.44.99.83,0,1.25-.46,1.25-1.39v-2.85h-1.67v-1.16Z"/>
      <polygon class="cls-15" points="384.08 760.66 384.08 761.82 379.94 761.82 379.94 765.32 383.42 765.32 383.42 766.49 379.94 766.49 379.94 771.07 384.79 771.07 384.79 772.24 376.58 772.24 376.58 760.66 384.08 760.66"/>
      <polygon class="cls-15" points="396.59 760.66 396.59 772.24 393.35 772.24 393.35 764.18 391.1 772.24 389.22 772.24 386.91 764.32 386.91 772.24 385.78 772.24 385.78 760.66 389.19 760.66 391.17 767.65 393.15 760.66 396.59 760.66"/>
      <polygon class="cls-15" points="406.09 760.66 406.09 761.82 401.94 761.82 401.94 765.32 405.43 765.32 405.43 766.49 401.94 766.49 401.94 771.07 406.79 771.07 406.79 772.24 398.59 772.24 398.59 760.66 406.09 760.66"/>
      <polygon class="cls-15" points="416.31 760.66 416.31 772.24 413.74 772.24 408.91 764.91 408.91 772.24 407.78 772.24 407.78 760.66 409.91 760.66 415.18 768.57 415.18 760.66 416.31 760.66"/>
      <polygon class="cls-15" points="426.37 760.66 426.37 761.82 423.53 761.82 423.53 772.24 419.96 772.24 419.96 761.82 417.11 761.82 417.11 760.66 426.37 760.66"/>
    </g>
    <text class="cls-34" transform="translate(372.6 829.91)"><tspan class="cls-83" x="0" y="0">M</tspan><tspan class="cls-59" x="24.27" y="0">A</tspan><tspan x="44.21" y="0">O</tspan></text>
    <g>
      <text class="cls-10" transform="translate(411.65 702.96)"><tspan x="0" y="0">2017-2019</tspan></text>
      <text class="cls-10" transform="translate(411.65 714.96)"><tspan x="0" y="0">Mention Bien</tspan></text>
      <text class="cls-3" transform="translate(411.65 690.96)"><tspan x="0" y="0">Université Clermont Auvergne</tspan></text>
      <line class="cls-49" x1="410.11" y1="678.79" x2="570.05" y2="678.79"/>
      <text class="cls-5" transform="translate(415.05 673.98)"><tspan x="0" y="0">MASTER</tspan></text>
      <text class="cls-5" transform="translate(450.21 674.05)"><tspan x="0" y="0">Stratégies de communication</tspan></text>
    </g>
    <text class="cls-2" transform="translate(449.22 827.08)"><tspan x="0" y="0">tailwind css</tspan></text>
  </g>
</svg>