<?xml version="1.0" encoding="UTF-8"?>
<svg id="Layer_1" data-name="Layer 1" xmlns="http://www.w3.org/2000/svg" viewBox="0 0 542.7 171.27">
  <defs>
    <style>
      .cls-1 {
        stroke-width: 0px;
        fill: white;
      }
    </style>
  </defs>
  <path class="cls-1" d="M5.1,149.9C15.79,104.22,38.14,15.79,41.06,1.21h4.62l41.06,170.06h-7.29l-16.52-68.51H24.05c-6.32,26.97-12.63,53.69-16.52,68.51H0l5.1-21.38ZM61.22,95.48c-4.62-19.43-9.23-36.93-12.39-50.53l-5.34-21.87-5.34,22.35c-3.16,13.61-7.53,31.34-12.15,50.05h35.23Z"/>
  <path class="cls-1" d="M95.47,1.21h7.29l58.79,149.41V8.5h-26.72V1.21h34.01v169.82h-7.29L102.76,24.54v146.49h-7.29V1.21ZM238.32,1.21v7.29h-48.1v162.53h-7.29V1.21h55.39Z"/>
  <path class="cls-1" d="M209.64,52.48C222.76,21.86,252.65,0,288.36,0c47.62,0,85.76,38.14,85.76,85.76s-38.14,85.52-85.76,85.52-85.52-37.9-85.52-85.52c0-11.9,2.19-23.08,6.8-33.28ZM210.13,85.76c0,10.45,2.19,20.65,6.32,30.37,11.66,27.94,39.84,47.86,71.91,47.86,42.03,0,78.23-34.5,78.23-78.23S331.6,7.29,288.36,7.29c-33.04,0-60.25,20.41-72.15,48.1-4.13,9.48-6.07,19.68-6.07,30.37Z"/>
  <path class="cls-1" d="M386.49,171.27V1.21h7.29v170.06h-7.29Z"/>
  <path class="cls-1" d="M416.13,1.21l58.79,149.41-.24-150.14h68.02v7.29h-60.49v62.92h43.97v7.29h-43.97v85.76h60.49v7.29h-67.78l-58.79-146.49v146.49h-7.29V1.21h7.29Z"/>
</svg>